<svg xmlns="http://www.w3.org/2000/svg" xmlns:xlink="http://www.w3.org/1999/xlink" width="1080" zoomAndPan="magnify" viewBox="0 0 810 809.999993" height="1080" preserveAspectRatio="xMidYMid meet" version="1.0"><defs><clipPath id="73d03982d1"><path d="M 153.863281 153.863281 L 656.128906 153.863281 L 656.128906 656.128906 L 153.863281 656.128906 Z M 153.863281 153.863281 " clip-rule="nonzero"/></clipPath></defs><rect x="-81" width="972" fill="#ffffff" y="-80.999999" height="971.999992" fill-opacity="1"/><rect x="-81" width="972" fill="#92003b" y="-80.999999" height="971.999992" fill-opacity="1"/><g clip-path="url(#73d03982d1)"><path fill="#ffffff" d="M 404.996094 153.863281 C 266.285156 153.863281 153.863281 266.285156 153.863281 404.996094 C 153.863281 543.660156 266.285156 656.128906 404.996094 656.128906 C 543.707031 656.128906 656.128906 543.707031 656.128906 404.996094 C 656.085938 266.285156 543.660156 153.863281 404.996094 153.863281 Z M 342.226562 509.601562 L 300.390625 509.601562 L 300.390625 300.347656 L 342.226562 300.347656 Z M 509.601562 509.601562 L 384.058594 509.601562 L 384.058594 467.769531 L 509.601562 467.769531 Z M 509.601562 425.890625 L 384.058594 425.890625 L 384.058594 384.058594 L 509.601562 384.058594 Z M 509.601562 342.179688 L 384.058594 342.179688 L 384.058594 300.347656 L 509.601562 300.347656 Z M 509.601562 342.179688 " fill-opacity="1" fill-rule="nonzero"/></g></svg>