<svg xmlns="http://www.w3.org/2000/svg" xmlns:xlink="http://www.w3.org/1999/xlink" width="1080" zoomAndPan="magnify" viewBox="0 0 810 809.999993" height="1080" preserveAspectRatio="xMidYMid meet" version="1.0"><defs><clipPath id="fdca7e1ae2"><path d="M 258.664062 216.363281 L 551.164062 216.363281 L 551.164062 593.613281 L 258.664062 593.613281 Z M 258.664062 216.363281 " clip-rule="nonzero"/></clipPath></defs><rect x="-81" width="972" fill="#ffffff" y="-80.999999" height="971.999992" fill-opacity="1"/><rect x="-81" width="972" fill="#ffffff" y="-80.999999" height="971.999992" fill-opacity="1"/><g clip-path="url(#fdca7e1ae2)"><path fill="#ff5b11" d="M 411.914062 216.398438 C 412.917969 216.269531 413.800781 216.523438 414.566406 217.15625 C 442.722656 251.542969 469.21875 287.140625 494.058594 323.957031 C 512.445312 351.65625 528.09375 380.945312 540.996094 411.824219 C 561.605469 466.816406 550.878906 514.664062 508.820312 555.359375 C 472.019531 586.480469 429.625 598.597656 381.632812 591.71875 C 324.265625 580.015625 285.277344 546.816406 264.664062 492.113281 C 259.292969 474.304688 257.527344 456.125 259.363281 437.578125 C 262.421875 405.648438 269.992188 374.84375 282.078125 345.167969 C 287.113281 333.058594 293.671875 321.949219 301.761719 311.839844 C 308.359375 319.703125 314.667969 327.78125 320.6875 336.078125 C 323.476562 338.992188 326.378906 341.769531 329.394531 344.410156 C 352.421875 298.6875 379.929688 256.015625 411.914062 216.398438 Z M 411.914062 216.398438 " fill-opacity="0.993" fill-rule="nonzero"/></g><path fill="#ff9758" d="M 406.617188 277.753906 C 434.394531 309.992188 459.503906 344.328125 481.945312 380.769531 C 488.980469 392.824219 494.785156 405.449219 499.359375 418.640625 C 508.882812 456.140625 498.664062 487.070312 468.695312 511.429688 C 439.710938 531.832031 407.914062 537.894531 373.304688 529.605469 C 335.980469 518.019531 314.40625 492.898438 308.574219 454.242188 C 307.160156 442.050781 308.421875 430.183594 312.359375 418.640625 C 317.976562 404.371094 324.789062 390.738281 332.800781 377.738281 C 340.371094 366.628906 347.941406 355.519531 355.511719 344.410156 C 372.710938 322.285156 389.746094 300.066406 406.617188 277.753906 Z M 406.617188 277.753906 " fill-opacity="1" fill-rule="nonzero"/></svg>