<svg xmlns="http://www.w3.org/2000/svg" xmlns:xlink="http://www.w3.org/1999/xlink" width="1080" zoomAndPan="magnify" viewBox="0 0 810 809.999993" height="1080" preserveAspectRatio="xMidYMid meet" version="1.0"><defs><clipPath id="ed9dbeb908"><path d="M 173 167 L 636 167 L 636 643.699219 L 173 643.699219 Z M 173 167 " clip-rule="nonzero"/></clipPath></defs><rect x="-81" width="972" fill="#ffffff" y="-80.999999" height="971.999992" fill-opacity="1"/><rect x="-81" width="972" fill="#ff2d20" y="-80.999999" height="971.999992" fill-opacity="1"/><g clip-path="url(#ed9dbeb908)"><path fill="#ffffff" d="M 635.632812 274.746094 C 635.804688 275.386719 635.890625 276.035156 635.894531 276.695312 L 635.894531 378.917969 C 635.894531 379.574219 635.808594 380.21875 635.636719 380.851562 C 635.46875 381.484375 635.21875 382.085938 634.890625 382.652344 C 634.558594 383.222656 634.164062 383.734375 633.699219 384.199219 C 633.234375 384.660156 632.714844 385.054688 632.148438 385.382812 L 546.351562 434.78125 L 546.351562 532.6875 C 546.351562 535.351562 544.933594 537.8125 542.625 539.152344 L 363.53125 642.25 C 363.121094 642.484375 362.671875 642.632812 362.226562 642.792969 C 362.058594 642.847656 361.898438 642.949219 361.722656 642.996094 C 360.449219 643.332031 359.175781 643.332031 357.902344 642.996094 C 357.699219 642.941406 357.511719 642.828125 357.316406 642.753906 C 356.90625 642.605469 356.476562 642.476562 356.085938 642.25 L 177.03125 539.152344 C 176.460938 538.828125 175.945312 538.433594 175.480469 537.96875 C 175.015625 537.507812 174.617188 536.992188 174.289062 536.421875 C 173.960938 535.855469 173.710938 535.253906 173.542969 534.621094 C 173.371094 533.988281 173.285156 533.34375 173.285156 532.6875 L 173.285156 226.023438 C 173.285156 225.351562 173.378906 224.699219 173.546875 224.066406 C 173.601562 223.851562 173.730469 223.65625 173.804688 223.441406 C 173.945312 223.050781 174.078125 222.648438 174.28125 222.285156 C 174.421875 222.042969 174.625 221.847656 174.792969 221.625 C 175.007812 221.328125 175.203125 221.019531 175.457031 220.757812 C 175.671875 220.542969 175.949219 220.386719 176.191406 220.199219 C 176.460938 219.976562 176.703125 219.734375 177.011719 219.554688 L 177.019531 219.554688 L 266.554688 168.007812 C 267.121094 167.679688 267.71875 167.433594 268.351562 167.265625 C 268.984375 167.097656 269.625 167.011719 270.28125 167.011719 C 270.933594 167.011719 271.578125 167.097656 272.210938 167.265625 C 272.839844 167.433594 273.441406 167.679688 274.007812 168.007812 L 363.539062 219.554688 L 363.558594 219.554688 C 363.855469 219.742188 364.109375 219.976562 364.378906 220.191406 C 364.621094 220.375 364.890625 220.542969 365.105469 220.75 C 365.367188 221.019531 365.550781 221.328125 365.777344 221.625 C 365.933594 221.847656 366.148438 222.042969 366.277344 222.285156 C 366.492188 222.660156 366.613281 223.050781 366.761719 223.441406 C 366.835938 223.65625 366.96875 223.851562 367.023438 224.074219 C 367.195312 224.710938 367.285156 225.363281 367.285156 226.023438 L 367.285156 417.5625 L 441.894531 374.605469 L 441.894531 276.6875 C 441.894531 276.035156 441.984375 275.371094 442.152344 274.746094 C 442.21875 274.523438 442.339844 274.328125 442.414062 274.113281 C 442.5625 273.722656 442.695312 273.324219 442.898438 272.960938 C 443.039062 272.71875 443.242188 272.519531 443.402344 272.296875 C 443.625 272 443.8125 271.691406 444.074219 271.429688 C 444.285156 271.21875 444.558594 271.058594 444.800781 270.871094 C 445.078125 270.648438 445.320312 270.40625 445.621094 270.230469 L 445.628906 270.230469 L 535.171875 218.679688 C 535.738281 218.355469 536.335938 218.105469 536.96875 217.9375 C 537.601562 217.769531 538.242188 217.683594 538.898438 217.683594 C 539.550781 217.683594 540.195312 217.769531 540.828125 217.9375 C 541.457031 218.105469 542.058594 218.355469 542.625 218.679688 L 632.15625 270.230469 C 632.472656 270.414062 632.714844 270.648438 632.996094 270.863281 C 633.226562 271.050781 633.5 271.21875 633.710938 271.421875 C 633.972656 271.691406 634.160156 272 634.382812 272.296875 C 634.550781 272.519531 634.757812 272.71875 634.886719 272.960938 C 635.101562 273.324219 635.222656 273.722656 635.371094 274.113281 C 635.453125 274.328125 635.574219 274.523438 635.632812 274.746094 Z M 620.96875 374.605469 L 620.96875 289.597656 L 589.636719 307.636719 L 546.351562 332.558594 L 546.351562 417.5625 L 620.976562 374.605469 Z M 531.433594 528.375 L 531.433594 443.3125 L 488.859375 467.628906 L 367.277344 537.019531 L 367.277344 622.882812 Z M 188.210938 238.925781 L 188.210938 528.375 L 352.351562 622.875 L 352.351562 537.03125 L 266.601562 488.5 L 266.574219 488.480469 L 266.535156 488.460938 C 266.246094 488.292969 266.003906 488.050781 265.734375 487.847656 C 265.5 487.660156 265.230469 487.511719 265.027344 487.308594 L 265.007812 487.277344 C 264.765625 487.046875 264.597656 486.757812 264.390625 486.496094 C 264.207031 486.246094 263.980469 486.03125 263.832031 485.769531 L 263.824219 485.742188 C 263.65625 485.460938 263.554688 485.125 263.433594 484.808594 C 263.3125 484.53125 263.152344 484.269531 263.078125 483.972656 L 263.078125 483.960938 C 262.984375 483.609375 262.964844 483.234375 262.929688 482.871094 C 262.890625 482.59375 262.816406 482.3125 262.816406 482.035156 L 262.816406 281.882812 L 219.542969 256.953125 L 188.210938 238.933594 Z M 270.289062 183.082031 L 195.691406 226.023438 L 270.269531 268.960938 L 344.859375 226.011719 L 270.269531 183.082031 Z M 309.085938 451.066406 L 352.359375 426.152344 L 352.359375 238.925781 L 321.027344 256.960938 L 277.742188 281.882812 L 277.742188 469.113281 Z M 538.898438 233.753906 L 464.308594 276.695312 L 538.898438 319.636719 L 613.476562 276.6875 Z M 531.433594 332.558594 L 488.148438 307.636719 L 456.816406 289.597656 L 456.816406 374.605469 L 500.09375 399.515625 L 531.433594 417.5625 Z M 359.804688 524.117188 L 469.210938 461.65625 L 523.898438 430.449219 L 449.363281 387.535156 L 363.550781 436.941406 L 285.335938 481.96875 Z M 359.804688 524.117188 " fill-opacity="1" fill-rule="nonzero"/></g></svg>