<svg xmlns="http://www.w3.org/2000/svg" xmlns:xlink="http://www.w3.org/1999/xlink" width="1080" zoomAndPan="magnify" viewBox="0 0 810 809.999993" height="1080" preserveAspectRatio="xMidYMid meet" version="1.0"><rect x="-81" width="972" fill="#ffffff" y="-80.999999" height="971.999992" fill-opacity="1"/><rect x="-81" width="972" fill="#1a202c" y="-80.999999" height="971.999992" fill-opacity="1"/><path fill="#ffffff" d="M 548.378906 527.300781 L 362.59375 582.691406 C 362.269531 582.789062 361.945312 582.867188 361.613281 582.921875 C 361.28125 582.976562 360.945312 583.011719 360.609375 583.023438 C 360.273438 583.035156 359.9375 583.023438 359.601562 582.992188 C 359.265625 582.964844 358.933594 582.910156 358.605469 582.835938 C 358.277344 582.761719 357.953125 582.667969 357.636719 582.550781 C 357.320312 582.4375 357.015625 582.300781 356.714844 582.144531 C 356.417969 581.988281 356.128906 581.816406 355.851562 581.625 C 355.578125 581.429688 355.3125 581.222656 355.066406 580.996094 C 354.816406 580.769531 354.582031 580.527344 354.363281 580.269531 C 354.144531 580.015625 353.945312 579.746094 353.761719 579.460938 C 353.578125 579.179688 353.414062 578.886719 353.269531 578.582031 C 353.125 578.277344 353 577.96875 352.894531 577.648438 C 352.789062 577.328125 352.703125 577 352.640625 576.671875 C 352.578125 576.339844 352.535156 576.007812 352.515625 575.671875 C 352.496094 575.335938 352.5 575 352.523438 574.664062 C 352.546875 574.328125 352.589844 573.992188 352.65625 573.664062 L 419.039062 253.203125 C 419.179688 252.550781 419.417969 251.933594 419.75 251.351562 C 420.085938 250.773438 420.5 250.257812 420.996094 249.804688 C 421.492188 249.355469 422.042969 248.992188 422.652344 248.714844 C 423.261719 248.4375 423.898438 248.261719 424.5625 248.183594 C 425.230469 248.105469 425.890625 248.132812 426.546875 248.261719 C 427.203125 248.394531 427.824219 248.621094 428.410156 248.945312 C 428.996094 249.269531 429.515625 249.675781 429.976562 250.164062 C 430.433594 250.652344 430.804688 251.199219 431.09375 251.804688 L 553.980469 514.90625 C 554.257812 515.492188 554.464844 516.101562 554.609375 516.730469 C 554.753906 517.359375 554.828125 518 554.832031 518.644531 C 554.839844 519.292969 554.773438 519.933594 554.640625 520.566406 C 554.507812 521.199219 554.304688 521.808594 554.039062 522.398438 C 553.773438 522.988281 553.449219 523.539062 553.0625 524.058594 C 552.675781 524.578125 552.238281 525.046875 551.75 525.472656 C 551.257812 525.894531 550.730469 526.261719 550.164062 526.570312 C 549.59375 526.878906 549 527.121094 548.378906 527.300781 Z M 580.246094 514.222656 L 437.988281 209.585938 C 437.554688 208.648438 437.058594 207.746094 436.5 206.878906 C 435.941406 206.011719 435.328125 205.1875 434.660156 204.402344 C 433.992188 203.617188 433.269531 202.882812 432.503906 202.195312 C 431.734375 201.507812 430.921875 200.875 430.066406 200.300781 C 429.210938 199.722656 428.320312 199.207031 427.394531 198.75 C 426.46875 198.292969 425.519531 197.902344 424.539062 197.574219 C 423.5625 197.25 422.566406 196.988281 421.554688 196.796875 C 420.539062 196.605469 419.519531 196.484375 418.488281 196.429688 C 417.457031 196.359375 416.429688 196.359375 415.398438 196.429688 C 414.367188 196.5 413.347656 196.640625 412.339844 196.851562 C 411.328125 197.0625 410.335938 197.339844 409.363281 197.6875 C 408.390625 198.035156 407.449219 198.449219 406.53125 198.925781 C 405.617188 199.402344 404.738281 199.9375 403.894531 200.535156 C 403.054688 201.132812 402.257812 201.785156 401.503906 202.492188 C 400.753906 203.199219 400.050781 203.957031 399.402344 204.757812 C 398.753906 205.5625 398.164062 206.40625 397.632812 207.289062 L 243.367188 459.339844 C 242.785156 460.289062 242.269531 461.273438 241.820312 462.296875 C 241.375 463.320312 241.003906 464.367188 240.703125 465.441406 C 240.40625 466.515625 240.183594 467.605469 240.039062 468.710938 C 239.894531 469.816406 239.828125 470.925781 239.839844 472.042969 C 239.851562 473.15625 239.941406 474.265625 240.109375 475.367188 C 240.277344 476.46875 240.523438 477.554688 240.84375 478.625 C 241.164062 479.691406 241.558594 480.730469 242.027344 481.742188 C 242.496094 482.753906 243.03125 483.730469 243.636719 484.664062 L 319.078125 602.488281 C 319.785156 603.582031 320.574219 604.613281 321.445312 605.582031 C 322.316406 606.546875 323.261719 607.4375 324.277344 608.253906 C 325.292969 609.066406 326.367188 609.796875 327.496094 610.4375 C 328.628906 611.078125 329.808594 611.625 331.027344 612.078125 C 332.25 612.53125 333.496094 612.882812 334.773438 613.132812 C 336.050781 613.382812 337.339844 613.53125 338.644531 613.574219 C 339.945312 613.617188 341.238281 613.558594 342.53125 613.394531 C 343.824219 613.226562 345.09375 612.960938 346.339844 612.589844 L 565.332031 547.292969 C 566.15625 547.054688 566.964844 546.769531 567.761719 546.441406 C 568.554688 546.117188 569.328125 545.746094 570.082031 545.335938 C 570.835938 544.921875 571.566406 544.472656 572.269531 543.984375 C 572.976562 543.492188 573.652344 542.964844 574.300781 542.402344 C 574.949219 541.839844 575.566406 541.242188 576.148438 540.613281 C 576.730469 539.984375 577.28125 539.324219 577.792969 538.636719 C 578.304688 537.945312 578.777344 537.230469 579.214844 536.492188 C 579.648438 535.75 580.042969 534.988281 580.398438 534.207031 C 580.75 533.425781 581.058594 532.625 581.324219 531.808594 C 581.59375 530.992188 581.8125 530.164062 581.992188 529.324219 C 582.167969 528.484375 582.300781 527.636719 582.386719 526.78125 C 582.46875 525.925781 582.507812 525.070312 582.503906 524.210938 C 582.496094 523.351562 582.441406 522.496094 582.34375 521.644531 C 582.242188 520.789062 582.097656 519.945312 581.90625 519.109375 C 581.714844 518.269531 581.480469 517.445312 581.199219 516.636719 C 580.917969 515.824219 580.597656 515.027344 580.230469 514.253906 Z M 580.246094 514.222656 " fill-opacity="1" fill-rule="evenodd"/></svg>