<svg xmlns="http://www.w3.org/2000/svg" xmlns:xlink="http://www.w3.org/1999/xlink" width="1080" zoomAndPan="magnify" viewBox="0 0 810 809.999993" height="1080" preserveAspectRatio="xMidYMid meet" version="1.0"><defs><clipPath id="738a8c8417"><path d="M 195.433594 195.433594 L 614.683594 195.433594 L 614.683594 614.683594 L 195.433594 614.683594 Z M 195.433594 195.433594 " clip-rule="nonzero"/></clipPath></defs><rect x="-81" width="972" fill="#ffffff" y="-80.999999" height="971.999992" fill-opacity="1"/><rect x="-81" width="972" fill="#ffffff" y="-80.999999" height="971.999992" fill-opacity="1"/><g clip-path="url(#738a8c8417)"><path fill="#010101" d="M 614.605469 400.441406 C 613.464844 330.347656 574.382812 262.101562 513.917969 226.164062 C 466.28125 196.496094 406.105469 188.507812 351.90625 202.199219 C 270.328125 222.738281 205.292969 296.617188 197.027344 380.820312 C 186.753906 460.347656 226.976562 543.058594 295.714844 583.84375 C 363.027344 626.054688 454.589844 624.347656 520.40625 579.914062 C 579.734375 541.40625 616.53125 471.167969 614.539062 400.5 Z M 416.652344 583.566406 C 321.386719 592.980469 229.253906 512.261719 226.679688 416.707031 C 219.476562 339.125 270.605469 262.394531 343.625 236.722656 C 446.027344 195.648438 571.816406 271.519531 582.367188 381.34375 C 598.917969 480.027344 516.769531 580.488281 416.652344 583.566406 Z M 353.960938 394.445312 L 491.726562 281.773438 L 417.28125 394.726562 C 396.175781 394.726562 375.070312 394.726562 353.960938 394.441406 Z M 392.699219 415.277344 L 456.015625 415.566406 L 318.253906 528.519531 Z M 392.699219 415.277344 " fill-opacity="1" fill-rule="nonzero"/></g></svg>