<svg xmlns="http://www.w3.org/2000/svg" xmlns:xlink="http://www.w3.org/1999/xlink" width="1080" zoomAndPan="magnify" viewBox="0 0 810 809.999993" height="1080" preserveAspectRatio="xMidYMid meet" version="1.0"><defs><clipPath id="e2042681cc"><path d="M 320 313.226562 L 488 313.226562 L 488 496.765625 L 320 496.765625 Z M 320 313.226562 " clip-rule="nonzero"/></clipPath><clipPath id="e0625877de"><path d="M 143.453125 313.226562 L 665.074219 313.226562 L 665.074219 496.765625 L 143.453125 496.765625 Z M 143.453125 313.226562 " clip-rule="nonzero"/></clipPath></defs><rect x="-81" width="972" fill="#ffffff" y="-80.999999" height="971.999992" fill-opacity="1"/><rect x="-81" width="972" fill="#090416" y="-80.999999" height="971.999992" fill-opacity="1"/><g clip-path="url(#e2042681cc)"><path fill="#ffffff" d="M 320.589844 490.433594 C 320.5625 491.269531 320.699219 492.082031 321 492.867188 C 321.296875 493.648438 321.734375 494.347656 322.3125 494.957031 C 322.984375 495.644531 323.804688 496.160156 324.714844 496.460938 C 325.484375 496.726562 326.300781 496.84375 327.121094 496.804688 L 407.402344 496.804688 C 414.027344 495.871094 447.527344 490.445312 469.988281 460.003906 C 472.875 456.042969 475.4375 451.875 477.667969 447.511719 C 479.902344 443.144531 481.78125 438.628906 483.304688 433.96875 C 484.828125 429.308594 485.980469 424.554688 486.761719 419.714844 C 487.539062 414.871094 487.933594 410 487.949219 405.09375 C 487.859375 397.296875 486.613281 370.320312 466.230469 346.03125 C 442.773438 318.0625 411.007812 313.992188 404.269531 313.289062 L 330.808594 313.289062 C 330.136719 313.339844 329.480469 313.449219 328.832031 313.617188 C 328.183594 313.785156 327.554688 314.011719 326.949219 314.292969 C 326.339844 314.578125 325.765625 314.914062 325.21875 315.300781 C 324.671875 315.6875 324.164062 316.125 323.695312 316.605469 C 323.230469 317.082031 322.808594 317.601562 322.4375 318.160156 C 322.0625 318.714844 321.742188 319.300781 321.476562 319.917969 C 321.210938 320.53125 321.003906 321.164062 320.851562 321.816406 C 320.699219 322.472656 320.609375 323.132812 320.578125 323.800781 L 320.578125 490.433594 Z M 320.589844 490.433594 " fill-opacity="1" fill-rule="nonzero"/></g><path fill="#090416" d="M 351.269531 359.46875 C 350.707031 358.300781 343.367188 360.6875 335.6875 363.226562 C 330.25 365.015625 324.867188 366.957031 319.539062 369.054688 L 319.539062 490.382812 C 319.519531 491.4375 319.753906 492.476562 320.210938 493.429688 C 320.855469 494.746094 321.921875 495.730469 322.140625 495.597656 C 322.34375 495.460938 321.832031 494.691406 321.335938 493.085938 C 320.894531 492.113281 320.664062 491.097656 320.644531 490.03125 C 320.539062 486.585938 322.410156 483.039062 323.671875 480.707031 C 325.160156 477.777344 326.796875 474.925781 328.582031 472.167969 C 336.730469 460.605469 350.097656 451.453125 350.097656 451.453125 C 355.742188 447.585938 371.453125 437.699219 389.832031 435.683594 C 395.085938 435.105469 401.394531 434.777344 401.394531 434.777344 C 412.007812 434.777344 414.46875 434.84375 421.292969 433.964844 C 428.113281 433.09375 431.703125 432.636719 435.507812 430.53125 C 443.574219 426.070312 447.074219 417.773438 448.367188 414.335938 C 449.273438 411.960938 453.460938 400.898438 449.019531 396.859375 C 446.917969 394.945312 445.128906 396.652344 439.851562 395.207031 C 434.75 393.832031 431.4375 391.070312 425.867188 385.746094 C 422.996094 383.210938 420.542969 380.324219 418.507812 377.082031 C 414.964844 371.203125 416.398438 369.5625 413.4375 365.519531 C 408.882812 359.324219 401.367188 357.640625 397.664062 356.8125 C 394.628906 356.136719 391.894531 355.558594 388.625 356.566406 C 384.667969 357.773438 382.375 360.554688 380.789062 362.519531 C 379.0625 364.621094 376.960938 367.957031 374.382812 378.175781 C 373.054688 383.433594 372.046875 388.75 371.355469 394.128906 C 371.097656 396.960938 370.339844 399.652344 369.085938 402.203125 C 367.828125 404.753906 366.15625 406.992188 364.070312 408.921875 C 358.171875 414.246094 351.335938 414.546875 348.433594 414.628906 C 345.277344 414.722656 337.433594 414.945312 331.820312 409.238281 C 326.511719 403.84375 326.5625 396.621094 326.5625 394.042969 C 326.613281 383 334.027344 374.957031 337.496094 371.203125 C 344.617188 363.550781 351.839844 360.652344 351.269531 359.46875 Z M 351.269531 359.46875 " fill-opacity="1" fill-rule="nonzero"/><g clip-path="url(#e0625877de)"><path fill="#ffffff" d="M 406.027344 384.515625 C 406.421875 384.515625 406.804688 384.441406 407.171875 384.289062 C 407.539062 384.136719 407.863281 383.917969 408.144531 383.636719 C 408.425781 383.359375 408.640625 383.035156 408.792969 382.667969 C 408.945312 382.300781 409.023438 381.917969 409.023438 381.519531 C 409.023438 381.121094 408.945312 380.742188 408.792969 380.375 C 408.640625 380.007812 408.425781 379.683594 408.144531 379.402344 C 407.863281 379.121094 407.539062 378.902344 407.171875 378.75 C 406.804688 378.597656 406.421875 378.523438 406.027344 378.523438 C 405.628906 378.523438 405.246094 378.597656 404.878906 378.75 C 404.511719 378.902344 404.1875 379.121094 403.90625 379.402344 C 403.625 379.683594 403.410156 380.007812 403.257812 380.375 C 403.105469 380.742188 403.027344 381.121094 403.027344 381.519531 C 403.027344 381.917969 403.105469 382.300781 403.257812 382.667969 C 403.410156 383.035156 403.625 383.359375 403.90625 383.636719 C 404.1875 383.917969 404.511719 384.136719 404.878906 384.289062 C 405.246094 384.441406 405.628906 384.515625 406.027344 384.515625 Z M 296.773438 442.296875 C 298.742188 443.347656 299.71875 443.871094 300.296875 444.71875 C 300.789062 445.449219 301.035156 446.253906 301.042969 447.136719 C 301.042969 448.1875 300.550781 449.082031 299.574219 450.929688 C 297.617188 454.707031 295.398438 458.324219 292.914062 461.78125 C 290.429688 465.234375 287.710938 468.492188 284.75 471.546875 C 281.792969 474.605469 278.628906 477.433594 275.257812 480.027344 C 271.886719 482.625 268.34375 484.960938 264.632812 487.042969 C 260.625 489.265625 256.453125 491.117188 252.117188 492.601562 C 247.78125 494.082031 243.351562 495.167969 238.820312 495.863281 C 234.289062 496.554688 229.734375 496.839844 225.15625 496.722656 C 220.574219 496.601562 216.039062 496.078125 211.550781 495.152344 C 206.984375 494.167969 202.53125 492.800781 198.195312 491.050781 C 193.863281 489.304688 189.707031 487.203125 185.730469 484.742188 C 181.753906 482.285156 178.015625 479.507812 174.515625 476.414062 C 171.011719 473.316406 167.800781 469.945312 164.875 466.300781 C 161.785156 462.472656 159.003906 458.433594 156.535156 454.179688 C 154.066406 449.929688 151.933594 445.511719 150.140625 440.933594 C 148.347656 436.355469 146.910156 431.664062 145.835938 426.867188 C 144.757812 422.066406 144.054688 417.214844 143.722656 412.308594 C 143.347656 407.367188 143.347656 402.421875 143.71875 397.480469 C 144.089844 392.535156 144.828125 387.648438 145.933594 382.816406 C 147.042969 377.984375 148.503906 373.261719 150.320312 368.652344 C 152.136719 364.039062 154.289062 359.589844 156.773438 355.300781 C 166.710938 338.382812 181.429688 325.523438 198.6875 318.675781 C 202.9375 316.980469 207.308594 315.675781 211.796875 314.761719 C 216.28125 313.84375 220.8125 313.335938 225.390625 313.234375 C 229.96875 313.128906 234.519531 313.433594 239.042969 314.144531 C 243.566406 314.855469 247.992188 315.960938 252.316406 317.464844 C 256.273438 318.863281 260.105469 320.546875 263.8125 322.523438 C 267.515625 324.496094 271.050781 326.738281 274.421875 329.242188 C 277.789062 331.75 280.949219 334.492188 283.90625 337.476562 C 286.859375 340.457031 289.578125 343.644531 292.050781 347.03125 C 293.28125 348.683594 293.890625 349.5 294.0625 350.5 C 294.195312 351.367188 294.082031 352.195312 293.722656 352.992188 C 293.296875 353.910156 292.417969 354.582031 290.675781 355.929688 L 277.488281 366.117188 C 275.453125 367.695312 274.417969 368.492188 273.441406 368.679688 C 272.589844 368.863281 271.769531 368.773438 270.980469 368.40625 C 270.054688 368.007812 269.128906 366.90625 267.277344 364.6875 C 264.148438 360.894531 260.566406 357.589844 256.53125 354.773438 C 252.5 351.957031 248.164062 349.730469 243.523438 348.09375 C 240.714844 347.117188 237.84375 346.402344 234.90625 345.941406 C 231.96875 345.480469 229.011719 345.285156 226.039062 345.351562 C 223.066406 345.421875 220.125 345.753906 217.210938 346.347656 C 214.296875 346.941406 211.460938 347.789062 208.699219 348.890625 C 205.84375 350.046875 203.105469 351.433594 200.480469 353.042969 C 197.859375 354.65625 195.386719 356.472656 193.0625 358.496094 C 190.742188 360.515625 188.601562 362.71875 186.644531 365.09375 C 184.691406 367.472656 182.941406 369.996094 181.40625 372.664062 C 179.789062 375.449219 178.386719 378.339844 177.207031 381.339844 C 176.023438 384.335938 175.074219 387.40625 174.355469 390.542969 C 173.636719 393.683594 173.15625 396.859375 172.914062 400.074219 C 172.671875 403.285156 172.675781 406.5 172.917969 409.710938 C 173.132812 412.902344 173.589844 416.054688 174.285156 419.175781 C 174.984375 422.296875 175.917969 425.34375 177.082031 428.320312 C 178.246094 431.300781 179.632812 434.167969 181.238281 436.933594 C 182.84375 439.699219 184.652344 442.324219 186.660156 444.8125 C 188.5625 447.183594 190.652344 449.371094 192.929688 451.382812 C 195.207031 453.394531 197.636719 455.199219 200.222656 456.796875 C 202.808594 458.394531 205.507812 459.761719 208.324219 460.898438 C 211.144531 462.035156 214.039062 462.925781 217.007812 463.566406 C 228.769531 466 241.003906 464.128906 251.507812 458.3125 C 255.890625 455.863281 259.875 452.886719 263.460938 449.375 C 267.046875 445.867188 270.109375 441.945312 272.652344 437.617188 C 274.117188 435.175781 274.839844 433.957031 275.679688 433.410156 C 276.402344 432.933594 277.191406 432.710938 278.058594 432.75 C 279.042969 432.75 280.160156 433.378906 282.421875 434.585938 L 296.773438 442.292969 Z M 660.800781 442.296875 C 662.777344 443.347656 663.753906 443.871094 664.332031 444.710938 C 664.816406 445.429688 665.074219 446.273438 665.074219 447.128906 C 665.074219 448.1875 664.578125 449.074219 663.609375 450.929688 C 661.652344 454.707031 659.433594 458.324219 656.949219 461.78125 C 654.464844 465.234375 651.742188 468.492188 648.785156 471.550781 C 645.824219 474.609375 642.660156 477.433594 639.285156 480.03125 C 635.914062 482.625 632.371094 484.960938 628.660156 487.042969 C 624.652344 489.265625 620.484375 491.121094 616.148438 492.601562 C 611.8125 494.082031 607.378906 495.171875 602.851562 495.863281 C 598.324219 496.554688 593.769531 496.839844 589.1875 496.722656 C 584.609375 496.601562 580.074219 496.082031 575.589844 495.152344 C 571.019531 494.164062 566.566406 492.796875 562.230469 491.050781 C 557.894531 489.300781 553.738281 487.199219 549.761719 484.742188 C 545.785156 482.285156 542.046875 479.507812 538.542969 476.410156 C 535.042969 473.316406 531.828125 469.945312 528.898438 466.300781 C 525.8125 462.472656 523.035156 458.433594 520.566406 454.179688 C 518.097656 449.925781 515.96875 445.511719 514.175781 440.929688 C 512.382812 436.351562 510.945312 431.664062 509.871094 426.867188 C 508.792969 422.066406 508.089844 417.214844 507.757812 412.308594 C 507.382812 407.367188 507.378906 402.421875 507.75 397.480469 C 508.121094 392.535156 508.859375 387.648438 509.96875 382.816406 C 511.074219 377.984375 512.535156 373.261719 514.355469 368.648438 C 516.171875 364.039062 518.328125 359.589844 520.816406 355.300781 C 530.753906 338.382812 545.472656 325.523438 562.730469 318.675781 C 566.980469 316.984375 571.34375 315.679688 575.824219 314.765625 C 580.304688 313.855469 584.832031 313.347656 589.40625 313.242188 C 593.976562 313.136719 598.519531 313.441406 603.039062 314.148438 C 607.558594 314.859375 611.976562 315.960938 616.296875 317.460938 C 620.253906 318.859375 624.085938 320.546875 627.792969 322.519531 C 631.496094 324.496094 635.03125 326.734375 638.398438 329.242188 C 641.769531 331.746094 644.929688 334.492188 647.886719 337.472656 C 650.839844 340.453125 653.558594 343.636719 656.035156 347.027344 C 657.261719 348.679688 657.875 349.5 658.042969 350.5 C 658.175781 351.367188 658.058594 352.199219 657.695312 352.992188 C 657.261719 353.910156 656.390625 354.582031 654.648438 355.929688 L 641.46875 366.117188 C 639.367188 367.691406 638.398438 368.492188 637.421875 368.679688 C 636.570312 368.867188 635.746094 368.773438 634.953125 368.40625 C 634.035156 368.007812 633.109375 366.902344 631.25 364.683594 C 628.121094 360.890625 624.535156 357.585938 620.503906 354.769531 C 616.472656 351.953125 612.136719 349.726562 607.496094 348.09375 C 604.6875 347.117188 601.8125 346.402344 598.875 345.941406 C 595.9375 345.480469 592.984375 345.285156 590.011719 345.355469 C 587.039062 345.421875 584.09375 345.753906 581.183594 346.347656 C 578.269531 346.941406 575.429688 347.789062 572.667969 348.890625 C 569.820312 350.050781 567.089844 351.4375 564.46875 353.050781 C 561.851562 354.664062 559.382812 356.480469 557.066406 358.503906 C 554.75 360.527344 552.617188 362.726562 550.664062 365.101562 C 548.714844 367.476562 546.972656 370 545.4375 372.664062 C 543.816406 375.453125 542.410156 378.34375 541.226562 381.34375 C 540.039062 384.339844 539.085938 387.414062 538.359375 390.554688 C 537.636719 393.699219 537.152344 396.875 536.910156 400.09375 C 536.664062 403.308594 536.664062 406.523438 536.902344 409.738281 C 537.121094 412.929688 537.578125 416.082031 538.277344 419.203125 C 538.976562 422.324219 539.910156 425.371094 541.074219 428.347656 C 542.242188 431.324219 543.628906 434.195312 545.234375 436.960938 C 546.839844 439.726562 548.648438 442.351562 550.65625 444.839844 C 552.558594 447.214844 554.652344 449.40625 556.933594 451.421875 C 559.214844 453.4375 561.652344 455.242188 564.242188 456.839844 C 566.832031 458.4375 569.539062 459.804688 572.363281 460.9375 C 575.1875 462.074219 578.085938 462.960938 581.0625 463.597656 C 592.816406 466.03125 605.054688 464.164062 615.554688 458.339844 C 619.9375 455.894531 623.921875 452.917969 627.511719 449.40625 C 631.101562 445.894531 634.164062 441.976562 636.707031 437.644531 C 638.15625 435.210938 638.894531 433.988281 639.734375 433.441406 C 640.453125 432.960938 641.242188 432.738281 642.101562 432.777344 C 643.152344 432.777344 644.203125 433.410156 646.476562 434.617188 L 660.796875 442.292969 Z M 660.800781 442.296875 " fill-opacity="1" fill-rule="nonzero"/></g></svg>