<svg xmlns="http://www.w3.org/2000/svg" xmlns:xlink="http://www.w3.org/1999/xlink" width="1080" zoomAndPan="magnify" viewBox="0 0 810 809.999993" height="1080" preserveAspectRatio="xMidYMid meet" version="1.0"><rect x="-81" width="972" fill="#ffffff" y="-80.999999" height="971.999992" fill-opacity="1"/><rect x="-81" width="972" fill="#864923" y="-80.999999" height="971.999992" fill-opacity="1"/><path fill="#000000" d="M 333.042969 177.949219 C 332.191406 181.15625 332.382812 208.988281 333.417969 219.648438 C 334.269531 229.460938 336.722656 240.023438 340.121094 249.554688 L 342.101562 255.023438 L 345.027344 252.574219 C 351.445312 247.195312 363.523438 243.042969 370.601562 243.894531 C 374.65625 244.363281 374.847656 243.609375 372.109375 235.683594 C 369.75 228.703125 364.277344 218.796875 355.5 205.308594 C 348.613281 194.742188 335.871094 177.195312 334.363281 176.25 C 333.984375 176.0625 333.417969 176.722656 333.042969 177.949219 Z M 333.042969 177.949219 " fill-opacity="1" fill-rule="nonzero"/><path fill="#000000" d="M 429.675781 190.496094 C 429.675781 190.78125 430.902344 192.667969 432.410156 194.554688 C 446.945312 212.855469 459.117188 237.949219 462.230469 256.15625 L 462.890625 259.554688 L 466.761719 258.136719 C 471.101562 256.535156 483.558594 256.0625 489.882812 257.195312 L 493.84375 257.855469 L 493.277344 255.308594 C 492.238281 250.78125 487.238281 240.023438 482.992188 232.949219 C 472.421875 215.496094 457.042969 202.007812 437.882812 193.328125 C 430.050781 189.742188 429.675781 189.554688 429.675781 190.496094 Z M 429.675781 190.496094 " fill-opacity="1" fill-rule="nonzero"/><path fill="#000000" d="M 265.757812 229.554688 C 259.246094 240.121094 254.054688 252.949219 251.980469 263.515625 C 249.527344 275.875 249.148438 284.835938 250.753906 297.101562 C 252.074219 306.914062 252.925781 310.78125 255.566406 318.140625 C 255.847656 318.894531 257.546875 317.761719 260.378906 314.554688 C 264.058594 310.402344 274.15625 304.175781 280.574219 302.007812 C 281.515625 301.722656 280.949219 299.648438 278.402344 293.609375 C 272.363281 279.363281 270.476562 269.554688 268.871094 244.175781 L 267.832031 226.25 Z M 265.757812 229.554688 " fill-opacity="1" fill-rule="nonzero"/><path fill="#000000" d="M 360.125 255.6875 C 349.746094 260.023438 341.914062 269.175781 338.042969 281.347656 C 335.589844 289.175781 334.644531 306.722656 336.15625 315.96875 C 338.988281 332.761719 346.726562 349.082031 357.105469 360.121094 C 364.277344 367.855469 369.941406 371.535156 378.054688 374.082031 C 395.042969 379.175781 410.519531 370.96875 417.40625 352.949219 C 430.523438 319.082031 413.726562 271.722656 383.71875 257.667969 C 376.074219 254.082031 366.070312 253.234375 360.125 255.6875 Z M 360.125 255.6875 " fill-opacity="1" fill-rule="nonzero"/><path fill="#000000" d="M 466.101562 264.929688 C 454.585938 269.269531 442.980469 284.648438 438.734375 300.875 C 435.902344 311.722656 434.960938 325.121094 436.1875 334.933594 C 438.828125 355.214844 444.300781 367.761719 455.152344 378.707031 C 464.496094 388.046875 469.214844 390.402344 479.21875 390.402344 C 488.75 390.402344 495.164062 387.667969 502.527344 380.214844 C 514.417969 368.328125 520.550781 350.875 520.644531 328.609375 C 520.644531 300.402344 508.378906 275.027344 490.351562 266.25 C 484.691406 263.421875 471.855469 262.761719 466.101562 264.929688 Z M 466.101562 264.929688 " fill-opacity="1" fill-rule="nonzero"/><path fill="#000000" d="M 538.195312 280.6875 C 542.632812 289.648438 547.445312 300.496094 548.859375 304.648438 C 551.691406 313.234375 554.238281 326.722656 554.238281 332.855469 L 554.238281 336.914062 L 563.960938 336.441406 C 571.886719 336.0625 574.625 336.347656 579.625 337.855469 L 585.570312 339.835938 L 584.910156 335.496094 C 583.398438 325.308594 576.511719 308.988281 569.148438 298.140625 C 564.429688 291.253906 554.804688 280.96875 548.292969 275.96875 C 543.953125 272.574219 531.214844 264.460938 530.363281 264.460938 C 530.175781 264.460938 533.667969 271.816406 538.195312 280.6875 Z M 538.195312 280.6875 " fill-opacity="1" fill-rule="nonzero"/><path fill="#000000" d="M 275.570312 313.894531 C 265.945312 317.480469 258.679688 327.101562 255.472656 340.59375 C 253.300781 349.933594 254.152344 366.0625 257.453125 377.195312 C 260.378906 386.914062 267.171875 401.441406 271.230469 406.628906 C 275.949219 412.574219 284.535156 421.160156 288.59375 423.800781 C 296.238281 428.988281 302.183594 430.875 310.300781 430.96875 C 316.339844 430.96875 318.699219 430.5 321.8125 428.800781 C 328.039062 425.5 332.382812 421.253906 335.402344 415.214844 C 350.972656 384.460938 332.570312 332.382812 300.578125 316.628906 C 294.917969 313.800781 292.464844 313.140625 286.425781 312.855469 C 281.707031 312.667969 277.929688 313.042969 275.570312 313.894531 Z M 275.570312 313.894531 " fill-opacity="1" fill-rule="nonzero"/><path fill="#000000" d="M 212.535156 329.835938 C 201.023438 348.140625 195.832031 368.421875 196.871094 389.839844 C 197.339844 398.988281 200.359375 415.6875 201.777344 417.101562 C 201.964844 417.386719 204.796875 415.121094 208.003906 412.195312 C 212.0625 408.515625 216.121094 406.066406 221.214844 403.894531 L 228.484375 400.96875 L 226.125 395.6875 C 222.914062 388.515625 220.460938 380.96875 218.855469 373.234375 C 216.875 364.082031 215.175781 339.648438 215.933594 332.101562 C 216.214844 328.609375 216.214844 325.78125 215.742188 325.78125 C 215.367188 325.78125 213.855469 327.574219 212.535156 329.835938 Z M 212.535156 329.835938 " fill-opacity="1" fill-rule="nonzero"/><path fill="#000000" d="M 554.617188 344.648438 C 537.726562 351.347656 526.589844 374.554688 528.195312 399.839844 C 529.988281 431.347656 546.597656 455.214844 567.546875 456.726562 C 586.136719 458.046875 600.761719 442.574219 605.292969 416.820312 C 606.800781 407.855469 605.859375 390.5 603.3125 381.441406 C 595.382812 353.421875 573.773438 337.101562 554.617188 344.648438 Z M 554.617188 344.648438 " fill-opacity="1" fill-rule="nonzero"/><path fill="#000000" d="M 410.328125 391.535156 C 408.820312 391.726562 402.96875 392.953125 397.496094 394.273438 C 389.191406 396.253906 385.226562 397.855469 374.375 403.800781 C 357.671875 412.855469 353.613281 415.59375 346.535156 422.480469 C 337.101562 431.726562 334.550781 438.519531 332.003906 461.632812 C 330.304688 477.953125 328.984375 483.046875 324.832031 490.875 C 320.585938 498.894531 312.46875 506.914062 293.21875 522.292969 C 273.308594 538.140625 265.570312 546.820312 262.359375 556.914062 C 258.207031 569.746094 260.472656 581.347656 270.097656 596.066406 C 285.574219 619.746094 316.8125 637.011719 347.195312 638.707031 C 369.46875 639.933594 389.757812 632.953125 432.503906 609.367188 C 469.027344 589.179688 487.617188 584.933594 524.042969 588.425781 C 532.441406 589.179688 545.085938 589.652344 553.769531 589.460938 C 566.886719 589.179688 569.808594 588.898438 576.417969 586.726562 C 585.570312 583.800781 591.796875 580.21875 598.308594 574.460938 C 611.617188 562.480469 621.902344 538.425781 621.050781 520.972656 C 620.390625 505.027344 607.558594 488.894531 591.136719 483.234375 C 588.210938 482.199219 578.679688 479.933594 569.90625 478.140625 C 539.613281 471.914062 528.003906 463.519531 504.320312 430.5 C 494.789062 417.195312 488.84375 410.96875 479.972656 405.027344 C 465.722656 395.5 447.605469 390.78125 426.089844 390.96875 C 419.011719 391.0625 411.933594 391.347656 410.328125 391.535156 Z M 410.328125 391.535156 " fill-opacity="1" fill-rule="nonzero"/><path fill="#000000" d="M 223.953125 412.480469 C 212.816406 416.160156 204.796875 425.121094 202.25 436.820312 C 200.738281 443.421875 201.023438 454.746094 202.816406 462.195312 C 204.703125 470.308594 211.589844 484.554688 216.96875 491.632812 C 230.652344 509.839844 249.902344 520.3125 266.890625 518.988281 C 277.742188 518.046875 286.613281 511.441406 291.707031 500.5 C 295.199219 492.761719 295.765625 479.273438 292.9375 468.234375 C 286.992188 444.648438 269.910156 423.800781 249.621094 415.308594 C 243.769531 412.953125 240.75 412.292969 234.332031 412.007812 C 229.898438 411.820312 225.273438 412.007812 223.953125 412.480469 Z M 223.953125 412.480469 " fill-opacity="1" fill-rule="nonzero"/></svg>