<svg xmlns="http://www.w3.org/2000/svg" xmlns:xlink="http://www.w3.org/1999/xlink" width="1080" zoomAndPan="magnify" viewBox="0 0 810 809.999993" height="1080" preserveAspectRatio="xMidYMid meet" version="1.0"><rect x="-81" width="972" fill="#ffffff" y="-80.999999" height="971.999992" fill-opacity="1"/><rect x="-81" width="972" fill="#8d49c3" y="-80.999999" height="971.999992" fill-opacity="1"/><path fill="#ffffff" d="M 368.363281 184.574219 C 358.410156 186.71875 346.742188 193.667969 340.734375 201.132812 C 338.761719 203.535156 337.128906 204.648438 334.8125 204.992188 C 329.410156 206.023438 320.226562 209.796875 314.90625 213.316406 C 305.726562 219.492188 298.949219 227.988281 294.230469 239.3125 C 292.515625 243.605469 291.65625 244.546875 288.308594 246.09375 C 286.164062 247.121094 281.445312 250.898438 277.84375 254.5 C 272.4375 259.734375 270.550781 262.394531 267.804688 268.230469 C 263.769531 276.980469 262.570312 282.300781 262.570312 291.738281 L 262.570312 298.945312 L 258.195312 303.921875 C 253.132812 309.757812 248.328125 319.109375 247.125 325.542969 C 245.925781 332.148438 246.097656 343.390625 247.46875 348.796875 C 248.15625 351.371094 248.414062 353.859375 247.984375 354.371094 C 246.695312 356.003906 243.863281 366.386719 243.351562 371.960938 C 241.804688 386.546875 248.15625 404.222656 259.050781 416.0625 C 262.742188 420.011719 270.71875 425.929688 275.527344 428.160156 L 280.074219 430.222656 L 279.816406 439.230469 C 279.386719 455.1875 282.820312 466.257812 292.085938 479.640625 C 297.234375 487.105469 303.152344 492.855469 311.304688 498.175781 C 318.683594 503.066406 324.605469 505.382812 335.070312 507.613281 C 339.363281 508.558594 344.765625 510.1875 347.082031 511.386719 C 353.347656 514.476562 360.554688 516.191406 361.839844 514.90625 C 362.355469 514.390625 364.242188 511.472656 365.960938 508.386719 C 371.109375 499.117188 371.109375 498.949219 369.992188 497.402344 C 364.84375 490.28125 363.386719 485.90625 364.15625 480.070312 C 364.929688 474.835938 368.191406 470.117188 372.824219 467.886719 C 377.628906 465.570312 379.085938 462.480469 377.199219 458.792969 C 372.910156 450.554688 359.867188 456.5625 353.003906 469.945312 C 351.03125 473.722656 350.601562 475.867188 350.34375 482.214844 L 350.085938 489.9375 L 344.507812 489.765625 C 324.347656 489.082031 307.1875 475.09375 300.234375 453.902344 C 299.035156 450.039062 298.691406 437.515625 299.722656 432.625 C 300.40625 429.621094 300.578125 429.449219 303.753906 429.449219 C 306.671875 429.449219 307.699219 429.964844 310.273438 432.878906 C 311.992188 434.769531 315.9375 437.515625 319.027344 439.058594 C 323.832031 441.460938 325.890625 441.976562 332.152344 442.148438 C 338.160156 442.40625 339.789062 442.234375 340.90625 441.03125 C 342.621094 439.316406 342.878906 431.765625 341.335938 430.5625 C 340.734375 430.050781 337.214844 429.449219 333.527344 429.105469 C 326.835938 428.589844 324.433594 427.816406 321.601562 425.332031 C 320.140625 424.128906 320.226562 423.957031 321.773438 421.726562 C 325.203125 416.921875 322.886719 410.574219 317.738281 410.574219 C 316.367188 410.574219 314.050781 411.34375 312.503906 412.289062 C 310.960938 413.230469 309.332031 414.003906 308.816406 414.003906 C 308.386719 414.003906 306.929688 411.859375 305.726562 409.199219 C 303.839844 404.996094 303.582031 403.535156 303.925781 397.960938 C 304.269531 392.726562 304.785156 391.007812 306.84375 388.007812 C 310.445312 382.945312 313.019531 381.914062 322.800781 381.570312 C 328.378906 381.3125 331.46875 380.886719 332.066406 380.113281 C 332.582031 379.511719 332.925781 376.765625 332.753906 373.933594 L 332.496094 368.957031 L 325.460938 368.53125 C 317.652344 368.015625 315.164062 366.726562 311.734375 361.664062 C 310.101562 359.347656 309.761719 357.632812 309.761719 352.570312 C 309.761719 346.90625 309.589844 346.222656 307.527344 344.589844 C 301.78125 340.042969 296.03125 345.019531 296.03125 354.371094 C 296.03125 359.175781 298.175781 365.527344 300.921875 369.214844 L 303.066406 372.046875 L 299.035156 376.082031 C 296.804688 378.3125 293.972656 382.257812 292.769531 384.832031 C 289.425781 391.953125 289.167969 402.851562 292.257812 410.914062 C 293.113281 413.0625 289.511719 412.632812 283.589844 409.886719 C 280.585938 408.425781 276.382812 405.339844 273.550781 402.507812 C 263.085938 392.039062 259.480469 377.28125 264.199219 364.753906 C 265.144531 362.523438 265.316406 362.4375 266.6875 363.640625 C 271.921875 368.359375 279.816406 363.984375 278.527344 357.117188 C 278.097656 354.972656 277.15625 353.773438 274.753906 352.398438 C 264.628906 346.738281 262.226562 336.355469 268.148438 324.257812 C 270.804688 318.851562 276.640625 314.476562 281.1875 314.476562 C 285.734375 314.476562 290.710938 317.476562 292.34375 321.167969 C 295.601562 328.375 300.066406 330.261719 304.183594 326.058594 C 310.875 319.367188 299.980469 304.265625 286.25 301.175781 L 281.875 300.230469 L 281.617188 293.539062 C 281.015625 277.496094 289.511719 265.3125 305.039062 259.992188 C 310.101562 258.191406 310.1875 258.191406 310.703125 254.414062 C 312.078125 245.234375 317.738281 235.195312 324.6875 229.960938 C 329.066406 226.613281 336.359375 224.382812 342.792969 224.382812 L 348.371094 224.382812 L 350.773438 220.351562 C 356.179688 211 363.214844 205.765625 372.824219 203.792969 C 383.207031 201.648438 393.585938 204.5625 400.453125 211.515625 C 406.886719 217.949219 406.886719 217.949219 406.800781 264.882812 L 406.714844 306.152344 L 397.621094 322.96875 C 392.558594 332.234375 387.582031 341.332031 386.550781 343.21875 C 384.234375 347.335938 380.976562 353.429688 375.398438 363.8125 C 373.167969 368.015625 370.679688 372.648438 369.820312 374.105469 C 369.046875 375.480469 366.902344 379.339844 365.101562 382.6875 C 363.300781 385.949219 360.8125 390.667969 359.4375 393.070312 C 351.886719 406.796875 348.371094 413.488281 348.628906 413.746094 C 348.800781 413.832031 361.753906 414.089844 377.371094 414.175781 L 405.855469 414.433594 L 405.855469 417.007812 C 405.855469 419.238281 403.199219 434.941406 399.335938 455.617188 C 398.648438 459.394531 396.761719 469.773438 395.132812 478.785156 C 393.585938 487.707031 390.84375 502.636719 389.125 511.816406 C 387.410156 521 385.695312 530.09375 385.351562 531.980469 L 384.75 535.414062 L 357.980469 535.671875 C 343.308594 535.757812 331.210938 536.183594 331.210938 536.527344 C 331.210938 537.128906 341.335938 548.882812 343.136719 550.429688 C 343.394531 550.683594 344.9375 552.402344 346.570312 554.289062 C 349.570312 557.808594 360.640625 570.246094 362.957031 572.734375 C 363.644531 573.421875 366.132812 576.253906 368.449219 579 C 370.679688 581.660156 372.910156 583.71875 373.253906 583.460938 C 373.9375 583.03125 377.285156 576.855469 388.953125 554.71875 C 391.269531 550.257812 393.929688 545.367188 394.703125 543.992188 C 395.5625 542.535156 399.25 535.585938 402.941406 528.546875 C 406.628906 521.425781 412.980469 509.5 417.011719 501.949219 C 421.128906 494.398438 428.421875 480.84375 433.3125 471.921875 C 438.117188 462.910156 443.4375 453.386719 444.980469 450.640625 C 446.613281 447.894531 447.898438 445.492188 447.898438 445.320312 C 447.898438 445.148438 449.359375 442.40625 451.160156 439.144531 C 453.046875 435.96875 456.738281 429.019531 459.484375 423.871094 C 462.226562 418.636719 468.0625 407.828125 472.351562 399.847656 C 484.363281 377.710938 487.453125 371.277344 486.425781 370.589844 C 485.910156 370.332031 472.867188 370.332031 457.335938 370.675781 C 438.804688 371.105469 429.109375 371.019531 428.679688 370.417969 C 428.421875 369.988281 428.765625 366.128906 429.453125 362.007812 C 430.054688 357.804688 431.253906 350.339844 432.027344 345.363281 C 432.710938 340.386719 435.285156 323.828125 437.601562 308.46875 C 443.695312 269.429688 447.214844 245.664062 448.242188 237.855469 C 448.5 236.140625 448.328125 234.679688 447.984375 234.679688 C 447.640625 234.679688 443.953125 240.601562 439.75 247.722656 C 428.507812 267.027344 427.480469 268.65625 426.792969 267.027344 C 425.761719 264.28125 426.964844 223.269531 428.25 219.75 C 429.96875 214.859375 436.746094 207.824219 442.066406 205.421875 C 445.839844 203.707031 448.070312 203.363281 454.765625 203.363281 C 461.886719 203.363281 463.515625 203.621094 468.0625 205.765625 C 474.15625 208.597656 480.761719 214.6875 483.507812 220.179688 L 485.566406 224.125 L 492.6875 224.640625 C 501.269531 225.15625 506.074219 227.128906 512.164062 232.621094 C 517.226562 237.167969 521.601562 245.320312 522.976562 252.871094 L 523.832031 257.933594 L 529.410156 259.820312 C 537.132812 262.394531 543.140625 267.113281 547.257812 273.632812 C 551.632812 280.5 553.433594 286.589844 553.433594 294.484375 C 553.433594 299.804688 553.175781 300.746094 551.976562 300.746094 C 547.773438 300.746094 540.308594 303.835938 536.617188 307.011719 C 532.5 310.613281 528.550781 317.390625 528.550781 320.824219 C 528.550781 324 532.5 328.203125 535.417969 328.203125 C 538.417969 328.203125 540.050781 326.660156 542.195312 321.769531 C 544.425781 316.707031 548.285156 314.21875 553.261719 314.734375 C 561.585938 315.589844 567.933594 323.570312 568.707031 334.382812 C 569.308594 342.875 567.507812 346.992188 561.671875 350.855469 C 555.835938 354.714844 554.808594 357.203125 556.953125 361.921875 C 558.753906 365.957031 563.816406 366.726562 567.335938 363.554688 C 568.707031 362.351562 568.964844 362.523438 570.335938 365.613281 C 571.367188 367.929688 571.796875 371.105469 571.710938 376.253906 C 571.625 384.402344 569.566406 390.925781 564.589844 398.046875 C 560.042969 404.738281 549.316406 412.203125 544.167969 412.289062 C 542.28125 412.289062 542.28125 412.203125 543.566406 409.113281 C 544.339844 407.3125 545.113281 403.707031 545.457031 400.960938 C 546.570312 389.808594 539.363281 381.742188 533.699219 387.921875 C 531.8125 389.808594 531.554688 391.007812 531.382812 398.21875 C 531.210938 404.308594 530.699219 407.140625 529.410156 409.628906 C 527.179688 414.175781 526.578125 414.347656 522.804688 412.289062 C 518.429688 409.972656 516.195312 410.144531 514.050781 412.804688 C 511.992188 415.464844 511.820312 417.867188 513.539062 420.867188 C 515.253906 423.871094 515.253906 424.042969 511.222656 426.617188 C 508.304688 428.417969 506.160156 428.933594 501.097656 429.277344 C 493.460938 429.707031 491.65625 430.90625 491.65625 435.453125 C 491.65625 440.429688 494.316406 442.320312 501.269531 442.320312 C 504.269531 442.320312 508.5625 441.804688 510.621094 441.203125 C 515.769531 439.660156 524.089844 434.253906 525.207031 431.679688 C 525.808594 430.476562 527.09375 429.449219 528.464844 429.191406 C 529.667969 429.019531 531.296875 428.589844 532.070312 428.246094 C 533.273438 427.734375 533.699219 428.589844 534.558594 433.394531 C 537.390625 448.324219 531.726562 464.285156 519.371094 476.296875 C 513.539062 481.871094 509.761719 484.273438 501.523438 487.449219 C 496.378906 489.421875 493.804688 489.765625 483.507812 490.109375 L 471.496094 490.539062 L 466.347656 496.203125 C 460.855469 502.207031 449.445312 511.132812 444.726562 513.105469 C 443.179688 513.789062 441.894531 514.734375 441.894531 515.335938 C 441.894531 516.023438 446.097656 516.191406 458.023438 515.9375 C 471.925781 515.507812 474.839844 515.25 479.644531 513.535156 C 482.734375 512.417969 485.996094 511.046875 486.9375 510.445312 C 487.882812 509.929688 491.742188 508.816406 495.519531 507.957031 C 512.335938 504.4375 522.460938 499.546875 532.5 490.109375 C 548.199219 475.265625 555.921875 456.476562 554.464844 436.484375 L 554.035156 430.476562 L 557.8125 428.503906 C 570.59375 421.984375 581.835938 409.972656 586.8125 397.617188 C 592.644531 382.859375 592.644531 370.246094 586.8125 355.917969 C 585.867188 353.601562 585.953125 352.226562 587.15625 346.90625 C 589.042969 338.84375 588.957031 333.695312 586.984375 325.199219 C 584.667969 315.675781 580.976562 308.898438 573.855469 301.175781 C 571.625 298.773438 571.453125 298.085938 571.453125 291.050781 C 571.453125 281.527344 570.421875 277.324219 565.875 267.714844 C 561.585938 258.703125 554.464844 250.898438 546.742188 246.519531 C 542.109375 243.945312 541.59375 243.347656 537.734375 235.539062 C 533.015625 225.929688 526.320312 217.949219 518.855469 213.144531 C 514.050781 210.054688 505.214844 206.28125 499.808594 205.078125 C 498.265625 204.734375 495.175781 202.417969 492.171875 199.332031 C 471.925781 178.652344 440.519531 177.792969 420.359375 197.269531 L 417.011719 200.53125 L 411.863281 195.8125 C 400.539062 185.34375 384.148438 181.054688 368.363281 184.574219 Z M 368.363281 184.574219 " fill-opacity="1" fill-rule="nonzero"/><path fill="#ffffff" d="M 366.644531 232.535156 C 365.617188 233.222656 364.15625 235.710938 363.386719 238.027344 C 361.582031 243.605469 358.410156 244.976562 347.167969 244.976562 C 338.074219 244.976562 336.359375 245.921875 336.359375 251.070312 C 336.359375 256.730469 338.675781 257.847656 350.515625 257.847656 C 360.554688 257.847656 361.582031 258.191406 367.074219 263.167969 C 370.164062 265.996094 371.195312 266.511719 373.082031 265.996094 C 378.488281 264.796875 380.289062 257.675781 376.253906 253.386719 C 375.054688 252.097656 373.425781 250.726562 372.652344 250.210938 C 371.28125 249.4375 371.195312 249.265625 372.480469 248.238281 C 375.054688 246.09375 376.683594 242.832031 376.683594 239.742188 C 376.683594 235.367188 376 233.992188 373.167969 232.535156 C 370.164062 230.90625 368.960938 230.90625 366.644531 232.535156 Z M 366.644531 232.535156 " fill-opacity="1" fill-rule="nonzero"/><path fill="#ffffff" d="M 462.058594 232.277344 C 459.398438 233.824219 458.28125 235.710938 458.195312 238.796875 C 458.195312 241.886719 459.824219 245.75 461.972656 247.464844 C 463.945312 249.09375 463.6875 249.867188 460.769531 251.410156 C 453.5625 255.1875 454.679688 266.425781 462.3125 266.425781 C 463.601562 266.425781 465.574219 265.140625 467.546875 263.082031 C 469.265625 261.277344 471.496094 259.304688 472.523438 258.789062 C 473.554688 258.277344 478.617188 257.847656 483.9375 257.847656 C 489.167969 257.847656 494.230469 257.503906 495.089844 256.988281 C 497.234375 255.875 498.609375 251.410156 497.664062 248.835938 C 496.464844 245.75 494.230469 244.976562 486.511719 244.976562 C 476.472656 244.976562 471.066406 242.058594 471.066406 236.738281 C 471.066406 234.59375 467.375 231.25 465.144531 231.25 C 464.375 231.25 463 231.761719 462.058594 232.277344 Z M 462.058594 232.277344 " fill-opacity="1" fill-rule="nonzero"/><path fill="#ffffff" d="M 314.992188 282.730469 C 309.933594 283.84375 305.125 287.707031 304.785156 291.050781 C 304.441406 293.96875 307.871094 298.171875 310.53125 298.171875 C 311.476562 298.171875 314.222656 297.402344 316.625 296.457031 C 323.917969 293.539062 330.179688 294.570312 334.554688 299.375 C 336.445312 301.347656 336.789062 302.71875 337.214844 310.441406 C 338.074219 323.140625 341.25 329.320312 349.058594 333.351562 C 357.207031 337.554688 367.761719 334.980469 372.050781 327.6875 C 374.625 323.226562 374.625 320.910156 371.964844 318.335938 C 368.707031 314.988281 364.5 315.417969 361.582031 319.195312 C 358.925781 322.710938 355.578125 323.226562 353.003906 320.394531 C 351.714844 318.9375 351.289062 316.792969 350.859375 309.414062 C 350.34375 299.546875 348.972656 295.769531 344.167969 290.195312 C 339.703125 285.132812 333.699219 282.558594 325.71875 282.214844 C 321.945312 282.042969 317.054688 282.300781 314.992188 282.730469 Z M 314.992188 282.730469 " fill-opacity="1" fill-rule="nonzero"/><path fill="#ffffff" d="M 503.671875 282.730469 C 498.609375 283.84375 494.832031 285.902344 491.488281 289.335938 C 486.082031 295 484.621094 298.859375 484.023438 309.242188 C 483.421875 319.878906 482.21875 322.199219 477.585938 322.199219 C 475.527344 322.113281 474.496094 321.511719 473.210938 319.367188 C 470.292969 314.734375 464.03125 315.074219 461.972656 320.050781 C 460.425781 323.828125 461.714844 327.257812 466.261719 331.636719 C 469.179688 334.382812 469.863281 334.636719 475.699219 334.894531 C 482.648438 335.238281 486.082031 334.210938 490.628906 330.089844 C 495.175781 325.972656 496.890625 321.339844 497.40625 311.472656 C 497.835938 303.320312 498.09375 302.292969 500.324219 299.632812 C 504.613281 294.398438 511.390625 293.625 520.488281 297.402344 C 526.148438 299.71875 531.8125 294.3125 529.238281 289.078125 C 526.835938 284.1875 521.085938 281.871094 511.390625 282.042969 C 508.816406 282.042969 505.300781 282.386719 503.671875 282.730469 Z M 503.671875 282.730469 " fill-opacity="1" fill-rule="nonzero"/><path fill="#ffffff" d="M 527.609375 344.417969 C 525.976562 345.707031 525.550781 347.078125 525.121094 353.171875 C 524.605469 361.066406 523.746094 362.953125 519.457031 365.957031 C 517.226562 367.414062 514.824219 368.015625 509.417969 368.445312 L 502.382812 368.957031 L 502.125 373.933594 C 501.78125 381.226562 502.382812 381.65625 511.820312 381.226562 C 520.574219 380.886719 525.035156 379.082031 530.355469 373.933594 C 538.675781 365.957031 541.59375 350.597656 535.84375 344.847656 C 533.355469 342.359375 530.355469 342.1875 527.609375 344.417969 Z M 527.609375 344.417969 " fill-opacity="1" fill-rule="nonzero"/><path fill="#ffffff" d="M 461.800781 444.035156 C 457.335938 448.152344 458.625 456.132812 464.972656 464.542969 C 470.636719 472.003906 482.734375 475.609375 494.144531 473.121094 C 501.183594 471.664062 503.925781 465.914062 499.722656 461.710938 C 498.695312 460.679688 496.464844 460.335938 489.769531 460.335938 C 477.15625 460.335938 473.898438 458.191406 472.351562 448.925781 C 471.324219 442.832031 465.832031 440.257812 461.800781 444.035156 Z M 461.800781 444.035156 " fill-opacity="1" fill-rule="nonzero"/><path fill="#ffffff" d="M 415.296875 545.023438 C 411.261719 550 407.574219 554.460938 407.144531 555.0625 C 406.628906 555.574219 401.996094 561.410156 396.847656 568.015625 C 391.699219 574.625 385.78125 582.089844 383.804688 584.578125 C 381.746094 587.066406 380.117188 589.46875 380.117188 589.894531 C 380.117188 590.410156 388.355469 599.847656 398.390625 610.917969 L 416.582031 631.082031 L 420.101562 627.476562 C 421.988281 625.417969 426.792969 620.097656 430.738281 615.636719 C 434.773438 611.175781 439.921875 605.339844 442.410156 602.765625 C 444.8125 600.191406 448.5 596.074219 450.558594 593.757812 C 452.617188 591.355469 456.394531 587.152344 459.054688 584.320312 C 461.628906 581.488281 466.519531 576.082031 469.777344 572.308594 C 476.042969 565.1875 493.117188 546.480469 498.695312 540.5625 C 500.496094 538.671875 501.953125 536.871094 501.953125 536.441406 C 501.953125 536.097656 484.109375 535.839844 462.3125 535.839844 L 422.589844 535.925781 Z M 415.296875 545.023438 " fill-opacity="1" fill-rule="nonzero"/></svg>