<svg xmlns="http://www.w3.org/2000/svg" xmlns:xlink="http://www.w3.org/1999/xlink" width="1080" zoomAndPan="magnify" viewBox="0 0 810 809.999993" height="1080" preserveAspectRatio="xMidYMid meet" version="1.0"><rect x="-81" width="972" fill="#ffffff" y="-80.999999" height="971.999992" fill-opacity="1"/><rect x="-81" width="972" fill="#37cfed" y="-80.999999" height="971.999992" fill-opacity="1"/><path fill="#f0ffff" d="M 539.738281 180.425781 C 570.742188 180.425781 595.878906 205.5625 595.878906 236.566406 L 595.878906 556.582031 C 595.878906 565.882812 588.339844 573.421875 579.039062 573.421875 L 259.023438 573.421875 C 259.023438 585.824219 269.078125 595.878906 281.480469 595.878906 L 579.039062 595.878906 C 588.339844 595.878906 595.878906 603.421875 595.878906 612.722656 C 595.878906 622.023438 588.339844 629.566406 579.039062 629.566406 L 281.480469 629.566406 C 250.476562 629.566406 225.339844 604.429688 225.339844 573.421875 L 225.339844 236.566406 C 225.339844 205.5625 250.476562 180.425781 281.480469 180.425781 Z M 539.738281 214.109375 L 281.480469 214.109375 C 269.078125 214.109375 259.023438 224.164062 259.023438 236.566406 L 259.023438 539.738281 L 562.195312 539.738281 L 562.195312 236.566406 C 562.195312 224.164062 552.140625 214.109375 539.738281 214.109375 Z M 494.824219 247.796875 C 507.226562 247.796875 517.28125 257.851562 517.28125 270.253906 L 517.28125 315.167969 C 517.28125 327.570312 507.226562 337.625 494.824219 337.625 L 315.167969 337.625 C 302.765625 337.625 292.710938 327.570312 292.710938 315.167969 L 292.710938 270.253906 C 292.710938 257.851562 302.765625 247.796875 315.167969 247.796875 Z M 483.59375 281.480469 L 326.394531 281.480469 L 326.394531 303.9375 L 483.59375 303.9375 Z M 483.59375 281.480469 " fill-opacity="1" fill-rule="nonzero"/></svg>