<?xml version="1.0" encoding="UTF-8"?><svg id="Calque_2" xmlns="http://www.w3.org/2000/svg" viewBox="0 0 584.51 666.22"><defs><style>.cls-1{fill:none;}.cls-1,.cls-2,.cls-3,.cls-4,.cls-5,.cls-6,.cls-7,.cls-8{stroke-width:0px;}.cls-3{fill:#6e3e3a;}.cls-4{fill:#915e05;}.cls-5{fill:#edb98a;}.cls-6{fill:#fefefe;}.cls-7{fill:#ebb789;}.cls-8{fill:#060605;}</style></defs><g id="Calque_8"><path class="cls-6" d="m375.55,633.38c-12.23,47.39-287.85,41.58-294.34-5.2-.22-1.56-.08-2.61.84-7.03,11.98-57.29,26.61-81.91,17.24-96.3-2.49-3.82-4.22-5.73-18.19-9.4-42.48-11.16-78.61-11.26-78.81-15.87-.09-2,6.52-1.87,9.94-7.79,3.13-5.42.66-10.85.02-18.46-.68-8.06,1.19-12.59,4.76-25.27,6.62-23.53,6.57-30.63,10.99-46.51,9.04-32.49,17.02-61.15,39.19-82.4,20.23-19.4,60.51-40.53,86.43-43.95,4.34-.57,19.3-2.1,24.9-12.09.85-1.51,2.82-2.08,3.11-3.39.42-1.86-.89-4.55.55-7.97.91-2.17,6.5-15.48,14.34-17.59,9.59-2.59,15.33,13.54,39.86,32.97,18.81,14.9,29.57,16.63,30.76,26.73,1.28,10.84-10.24,16.21-7.32,26.73,2.52,9.1,13.96,15.29,18.07,12.95,2.99-1.71.14-7.08,4.35-14.41,2.11-3.68,3.46-3.41,9.6-9.81,3.05-3.18,6.94-7.23,10.15-12.51,3.88-6.38,5.28-12.11,6.46-17.06,3.33-14.05,0-18.46,2.91-19.59,2.91-1.13,8.55,3.21,19.68,15.66,5.8,6.49,6.88,7.12,9.45,8.9,7.91,5.48,13.2,5.74,20.4,7.4,10.72,2.46,18.61,8.94,27.1,19.68,3.84,4.86,6.29,8.99,19.04,35.89,6.67,14.06,10,21.1,10.99,23.44,17.2,40.86-41.01,107.25-46.88,177.25-2.99,35.65,1.1,63.36,1.1,63.36,2.45,16.62,4.37,17.45,3.3,21.61Z"/><path class="cls-5" d="m192.6,129.93c9.9-76.56,94.82-107.03,133.18-69.78,0,0,11.86,25.86,13.11,34.53,1.14,7.83-1.38,53.57-1.38,53.57l-10.03,53.43c-24.76,29.08-21.54,40.05-14.97,69.95.25,1.14-4.34,17.19-6.54,22.26s-16.13,20.2-22.71,28.29c-.94,1.16-4.51,17.44-7.14,11.44s-7.76-1.51-10.44-8.79c-1.95-5.3,3.23-18.23,1.38-29.61-2.63-16.17-12.63-16.66-14.93-17.27-8.73-2.3-16.37-13.85-23.07-16.66-7.02-2.95-12.53-11.51-14.76-14.74,9.07-16.7,4.29-21.62,1.68-40.04-4.92-20.92-5.76-28.1-7.11-28.78-1.73-.88-4.1,8.15-14.88,3.84-3.45-8.2-4.55-20.73-9.56-28.36-11.06-7.85-8.43-29.61,8.17-23.29Z"/><path class="cls-3" d="m262.89,228.35s3.02-11.39,11.75-13.47c8.73-2.07,29.4-1.56,29.4-1.56,0,0,5.27.04,6.4,5.99,1.13,5.95-14.63,12.43-14.63,12.43h-24.9l-8.03-3.39Z"/><path class="cls-3" d="m289.28,172.5s-12.82-7.54-26.63,0c-13.81,7.54-11.97,15.69-11.97,15.69,0,0,13.74-9.06,25.98-9.52,12.23-.47,12.62-6.17,12.62-6.17Z"/><path class="cls-3" d="m293.76,170.9s12.82-7.54,26.63,0c13.81,7.54,11.97,15.69,11.97,15.69,0,0-13.74-9.06-25.98-9.52-12.23-.47-12.62-6.17-12.62-6.17Z"/></g><g id="Calque_3"><path class="cls-8" d="m312.27,258.1c-1.8.77-2.08,1.51-1.62,3.36,1.23,4.88,2.9,9.62,4.47,14.39.85,2.57,1.25,5.02-1.67,6.8-.66.4-.82,1.69-1.14,2.59-4.14,11.8-9.19,22.99-19.32,31.13-4.41,3.54-6.83,8.51-8.53,13.84-.75,2.35-1.49,4.82-4.76,5.41,3.99,4.8,7.47,9.79,9.55,15.62,1.76,4.91,3.21,9.85,1.76,15.13-.33,1.21-.41,2.73-2.15,2.77-2.04.04-2.07-1.73-2.2-3.01-.69-6.83-2.23-13.33-6-19.22-3.47-5.43-7.82-9.99-12.8-14.03-4.16-3.38-7.87-7.1-8.46-12.86-.36-3.51.5-6.84,1.41-10.18,1.08-3.95,2.32-7.87,1.99-12.05-.07-.84.09-1.87-.98-2.15-.95-.25-1.15.76-1.59,1.3-9.06,10.98-17.49,22.43-25.88,33.92-.25.34-.52.7-.66,1.09-1.73,4.78-4.23,5.45-7.85,1.81-4.41-4.42-7.08-10.01-9.57-15.62-6.3-14.18-12.89-28.19-22.05-40.82-3.66-5.05-7.46-10.01-11.16-14.97-16.15,12.38-35.31,18.46-53.88,25.8-14.3,5.65-28.57,11.36-41.4,20.1-13.93,9.48-24.01,22.17-31.29,37.14-10.92,22.44-17.57,46.41-24.64,70.21-7.66,25.79-13.88,51.96-20.09,78.13-.15.63-.35,1.25-.55,1.86-.65,1.93-.21,2.57,2.05,2.93,27.32,4.3,54.78,8.01,80.82,18.07,2.29.88,4.1,1.99,4.39,4.58.17,1.51.96,1.46,1.97,1.02.82-.36,2.45.13,1.95-1.74-1.41-5.27-.07-10.53.25-15.76,1.01-16.79,3.15-33.49,5.3-50.17.49-3.79-.91-6.98-2.07-10.27-1.67-4.73-3.71-9.33-5.3-14.18,4.2,2.53,6.51,6.67,9.26,10.95,1.36-3.66,1.43-7.63,4.31-10.7,1.98,2.89,2.29,5.96,2.56,9.04,1.24,14.15-.05,28.24-1.02,42.33-.86,12.55-2.74,25-5.26,37.82,6.16-1.67,12.03-3.26,17.9-4.84,26.48-7.1,52.96-14.22,79.46-21.28,1.74-.46,2.99-1.27,4.1-2.74,2.65-3.49,6.08-5.94,10.69-5.5,1.43.14,4.15-.54,3.88,2.63-.03.38.17.42,1.74.02,13.21-3.42,26.23-7.31,38.88-12.6,13.06-5.47,26.54-9.98,40.27-13.57,5.94-1.55,11.01-1.27,15.5,4.42,3.16,4,8.03,6.77,11.99,10.27,1.49,1.32,2.39,2.73,2.17,4.75-2.78,1.61-4.38-.6-6.17-1.98-4.15-3.2-7.13-7.52-11.55-10.72-4.34-3.15-7.85-3.37-12.14-2.08-16.38,4.92-32.73,9.97-49.07,15.01-.63.2-1.9.19-1.77.96.6,3.44-2.32,3.29-4.06,3.88-10.41,3.52-21.21,5.62-31.83,8.36-3.8.98-5.12,2.94-5.44,6.34-.84,9.04,1.74,17.48,4.54,25.88,1.17,3.51,2.77,6.8,5.65,9.28,2.1,1.81,4.17,2.51,6.98.95,6.58-3.65,13.31-7.06,20.07-10.38,2.28-1.12,4.61-3.77,7.46-.57.39.44,2.03-.18,3.07-.38,5.83-1.11,10.92-3.91,15.86-7.01,5.15-3.23,10.53-3.32,16.13-1.52,3.09.99,5.97,2.44,8.88,3.85,3.19,1.55,6.27,3.4,9.78,4.17,2.11.46,4.43,1.02,5.9-1.2,1.44-2.18.64-4.4-.63-6.37-2.31-3.58-5.74-5.78-9.62-7.3-6.57-2.57-13.4-3.92-20.41-4.62-1.93-.19-5.41.29-5.16-2.38.24-2.64,3.6-1.87,5.69-1.73,6.27.43,12.3,2.11,18.22,4.11,5.06,1.71,9.71,4.14,13.22,8.34.41.49.78,1.16,1.55.72,3.12-1.77,6.1-.26,9.09.38,2.36.51,3.66.28,4.2-2.61,1.8-9.62,3.93-19.18,5.93-28.76,4.42-18.63,9.01-37.21,14.34-55.61,4.25-14.66,9.06-29.15,13.43-43.77,3.23-10.8,9.91-16.98,21.05-18.6,5.62-.82,11.18-2.08,17.07-3.2-5.76-12.1-9.48-24.72-15-36.62-6.16-13.27-16.54-22.04-29.11-28.72-7.59-4.04-15.38-7.73-22.62-12.41-2.32-1.5-4.66-3-6.58-4.91.23-.78.7-.73,1.06-.54,9.79,4.98,20.24,8.37,30.48,12.22,19.79,7.44,32.32,21.31,38.87,41.18,2.92,8.87,5.85,17.76,10.33,26.05.93,1.72,1.79,2.26,3.73,1.92,24.31-4.2,48.74-7.62,73.28-10.19,25.95-2.72,51.95-4.72,78.03-5.58,3.23-.11,6.45-.32,9.68-.42,4.72-.16,5.64.84,4.92,5.4-1.32,8.3-2.69,16.59-4.02,24.89-2.99,18.6-5.87,37.23-8.98,55.81-3.69,22.09-7.59,44.14-11.33,66.21-1.04,6.15-1.77,12.36-3.49,18.39-3.25,11.36-10.61,17.62-22.46,19.15-28.43,3.67-56.96,6.32-85.42,9.73-6.52.78-13.04,1.69-19.58,2.22-2.78.23-3.14,1.26-2.89,3.77,1.36,13.25.45,26.49-.65,39.71-.57,6.83-3.4,12.7-8.41,17.33-8.49,7.85-17.28,15.28-28.97,18.06-2.85.68-5.69,1.32-8.61,1.1-1.76-.13-1.99.44-1.57,1.99.73,2.7,1.42,5.4.63,8.26-.36,1.28-.97,2.24-2.23,2.46-1.16.2-1.97-.62-2.67-1.5-1.54-1.94-1.97-4.29-2.38-6.62-3.89-21.99-5.19-44.1-3.29-66.38.26-3.01.47-6.04,1.1-8.98.55-2.55-.47-2.55-2.42-2.3-8.45,1.1-16.93,2.34-25.44,2.28-6.83-.05-13.61,1.28-20.47.37-6.88-.91-13.57-2.52-20.03-4.93-6.54-2.44-13.02-5.09-19.38-7.96-8.83-3.98-17.96-7.17-26.88-10.91-1.36-.57-2.28-.13-3.3.41-3.43,1.78-6.85,3.61-10.27,5.41-1.51.8-2.78,1.69-3.79,3.26-1.81,2.83-4.94,3.76-8.11,3.98-1.69.12-3.09.64-4.54,1.39-38.46,19.97-76.66,40.45-115.38,59.93-6.24,3.14-12.55,6.15-19.2,8.32-2.43.8-3.2,2.12-2.88,4.46.22,1.6.37,3.22.44,4.83.07,1.5.2,3.06-.09,4.51-.35,1.75-1.32,3.43-3.35,3.4-2.25-.04-2.57-2.04-2.75-3.76-.25-2.38.52-4.69.84-7.03.16-1.16.3-2.32.49-3.75-7.5,1.97-14.75,3.16-22.23,3.24-11.79.12-21.32-4.47-29.1-13.05-11.93-13.15-17.59-28.87-18.79-46.38-1-14.55-.61-29.1.38-43.63.13-1.98-.44-2.4-2.16-2.51-1.81-.11-3.64-.27-5.36-1.01-5.14-2.21-6.67-6.7-3.97-11.6,1.5-2.73,1.12-5.85,1.65-8.79,4.05-22.47,9.9-44.5,16.04-66.46,6.92-24.75,14.07-49.42,23.71-73.31,7.96-19.75,19.01-37.12,36.61-49.76,13.15-9.45,27.82-15.77,42.91-21.28,19.28-7.03,38.58-14.04,57.15-22.83.58-.27,1.68-.22,1.47-1.33-.19-1-1.04-.37-1.58-.5-2.37-.58-3.52-2.41-2.3-4.3,5.31-8.25,9.13-17.73,18.08-23.11,4.86-2.92,10.33-2.31,15.67-2.33,1.38,0,3.05,1.24,4.08-1.17l3.75,1.53-2.08,16.63c-1.55,1.58-1.04,2.26.29,3.48,10.37,9.49,21.57,17.85,33.75,24.91,4.38,2.54,8.55,5.4,12.19,9,6.06,5.99,8.07,13.04,5.92,21.29-1.03,3.95-2.2,7.88-3.04,11.87-.88,4.14.53,7.65,3.75,10.39,2.77,2.35,5.56,4.68,8.56,7.19-.18-9.56,4.72-16.33,11.35-21.91,6.98-5.88,12.41-12.77,15.97-21.16.61-.45.91-1.02.69-1.79,0,0-.05.09-.05.09,1.7-1.36,1.99-3.57,3.19-5.23,1.09-1.51.79-2.71-.59-3.78-1.57-5.59-1.79-13.81-2.48-19.59l6.29-2.1Zm19.72,291.11c2.68-.53,4.78-1.02,6.9-1.36,26.08-4.22,52.41-6.41,78.61-9.65,16.26-2.01,32.56-3.64,48.85-5.43,21.1-2.33,42.21-4.65,63.31-6.97,7.34-.81,14.43-2.03,18-9.8,1.26-2.75,2.35-5.57,2.91-8.53,2.06-11,4.14-22,5.98-33.04,4.93-29.63,9.84-59.27,15.36-88.8,2.02-10.8,3.89-21.62,5.79-32.44.22-1.28.93-2.78-1.65-2.68-18.75.73-37.49,1.65-56.2,3.19-22.55,1.85-45.04,4.35-67.46,7.49-21.12,2.95-42.1,6.71-63.09,10.47-7.14,1.28-11.68,5.27-13.76,12.38-3.87,13.2-8.15,26.28-12.07,39.47-10.12,34.05-18.01,68.65-25.92,103.26-1.69,7.4-3.64,14.73-5.56,22.43Zm-241.35-24.15c-10.03-3.67-19.57-6.56-29.12-9.43-14.57-4.37-29.7-6.33-44.33-10.45-2.59-.73-2.27.95-2.27,2.41,0,17.16-.16,34.33,1.47,51.44,1.47,15.53,5.85,29.91,15.8,42.35,8.74,10.93,19.6,15.86,33.7,14.12,11.38-1.4,22.08-4.77,32.34-9.64,18.59-8.81,36.58-18.81,54.88-28.2,21.75-11.15,43.42-22.45,65.16-33.62,1.82-.94,2.65-1.4.58-3.12-2.95-2.46-4.78-5.82-6.08-9.4-3.68-10.15-5.66-20.57-4.43-31.41.24-2.15-.36-2.48-2.18-1.74-.59.24-1.27.26-1.89.43-38.96,10.61-77.99,20.95-117.27,30.34-9.83,2.35-19.74,4.59-28.62,9.75-1.98,1.15-3.86,2.48-5.78,3.72,10.36-10.35,24.18-13.27,38.03-17.55Zm138.54-196.1c1.58-2.71,3.2-4.97,4.93-7.17,8.24-10.53,16.52-21.01,26.43-30.05,1.54-1.4.14-2.13-.47-2.88-3.26-3.99-7.53-6.74-11.88-9.34-19.1-11.44-36.86-24.4-49.13-43.52-1.6-2.5-2.78-2.25-4.49-.37-1.97,2.16-3.68,4.51-5.11,7.05-2.01,3.56-3.7,7.33-6.01,10.68-1.77,2.56-1.68,4.34.67,6.19.33.26.59.63.89.94,13.84,14.41,25.36,30.38,33.26,48.85,2.92,6.82,6.06,13.56,10.92,19.63Zm193.17,218.34c-.76,0-1.39-.06-2.01,0-14.77,1.65-29.53,3.4-44.31,4.91-2.37.24-2.97.97-3.08,3.22-.91,19,.09,37.92,2.28,56.79.46,3.97,3.13,5.84,7.15,5.12,7.74-1.39,13.83-5.8,19.53-10.81,6.09-5.37,12.2-10.8,12.59-19.83.06-1.4.3-2.78.45-4.18,1.27-11.92,4.6-23.41,7.41-35.22Zm-163.98-18.84c0,.3.02.6.03.9,1.43.23,2.87.41,4.29.71,9.62,2.01,18.73,5.59,27.85,9.09,12.19,4.68,24.48,8.95,37.74,9.21.89.02,2.05.94,2.28-1.05.98-8.57,2.11-17.11,3.17-25.67.09-.72.39-1.95-.33-2.07-3.75-.61-6.94-3.17-10.97-3.35.46,1.41.91,2.52,1.18,3.66,1.44,6-2.28,10.34-8.41,9.78-2.59-.24-5.09-.96-7.44-2.05-3.7-1.72-7.31-3.64-11.02-5.34-4.74-2.17-9.64-3.32-14.6-.74-7.45,3.87-14.88,7.72-23.76,6.92Zm-47.28-285.33c.81-3.75,1.59-7.31,2.34-10.88.13-.61.85-1.73-.54-1.59-4.2.41-8.52.1-12.42,1.73,3.53,3.57,6.97,7.05,10.62,10.74ZM12.94,513.65c.25-2.19.59-4.11.66-6.03.04-1.07.94-2.54-.44-3.18-1.51-.7-3.23-1.16-4.89-.07-.62.4-1.3.73-1.99,1-2.53.97-2.83,2.17-.88,4.14,2.01,2.02,4.55,3.16,7.54,4.15Z"/><path class="cls-7" d="m341.34,483.69c-2,9.58-4.14,19.14-5.93,28.76-.54,2.89-1.84,3.12-4.2,2.61-2.99-.64-5.97-2.15-9.09-.38-.77.44-1.14-.24-1.55-.72-3.51-4.2-8.16-6.63-13.22-8.34-5.93-2-11.95-3.68-18.22-4.11-2.09-.14-5.45-.92-5.69,1.73-.25,2.67,3.23,2.19,5.16,2.38,7.01.7,13.85,2.05,20.41,4.62,3.89,1.52,7.31,3.72,9.62,7.3,1.28,1.97,2.07,4.19.63,6.37-1.47,2.22-3.79,1.66-5.9,1.2-3.51-.77-6.59-2.62-9.78-4.17-2.9-1.42-5.79-2.86-8.88-3.85-5.6-1.8-10.98-1.7-16.13,1.52-4.94,3.1-10.04,5.9-15.86,7.01-1.05.2-2.68.82-3.07.38-2.84-3.2-5.18-.55-7.46.57-6.76,3.32-13.49,6.73-20.07,10.38-2.81,1.56-4.88.86-6.98-.95-2.88-2.48-4.48-5.77-5.65-9.28-2.8-8.39-5.38-16.84-4.54-25.88.32-3.39,1.64-5.35,5.44-6.34,10.62-2.74,21.42-4.83,31.83-8.36,1.74-.59,4.66-.44,4.06-3.88-.13-.77,1.14-.76,1.77-.96,16.35-5.04,32.69-10.08,49.07-15.01,4.29-1.29,7.8-1.07,12.14,2.08,4.41,3.2,7.4,7.51,11.55,10.72,1.79,1.39,3.39,3.59,6.17,1.98,1.94.05,2.39,2.57,4.34,2.61Zm-67.13,1.77c2.23.49,3.77.22,5.28-.08,8.67-1.69,17.38-3.06,26.15-4.14,8.35-1.03,16.08-.46,22.64,5.66,1.95,1.82,4.37,3.15,6.96,4.01.77.25,1.7.97,2.39.13.84-1.02-.17-1.85-.77-2.47-7.21-7.38-15.09-13.31-26.3-11.77-7.79,1.07-15.6,2.06-23.26,3.83-4.31,1-8.7,1.93-13.09,4.81Zm11.19,12.48c-.02.26-.03.53-.05.79,1.8-.12,3.62-.15,5.41-.36,7.05-.83,14.11-1.63,21.15-2.6,3.95-.54,7.21.58,10,3.32,1.62,1.58,3.15,3.27,4.88,4.71,2.13,1.77,4.54,2.91,7.44,2.07.65-.19,1.26-.5,1.28-1.24.01-.69-.42-1.34-1.1-1.41-4.69-.47-7.13-4.12-10.07-7.05-3.22-3.2-7.11-4.54-11.51-3.71-9.16,1.71-18.29,3.65-27.43,5.49Z"/><path class="cls-8" d="m288.21,328.38c1.26-3.69,3.32-6.78,5.56-9.75,2.91-3.85,4.77-4.09,8.63-1.26,1.52,1.12,2.83,2.58,4.9,3.37.2-2.33.26-4.46.6-6.55.82-4.96,3.24-9.15,6.95-12.46,4.2-3.73,6.84-8.66,9.58-13.28,1.8-3.04,1.11-7.53,1.56-11.37.55-4.65-2.51-7-5.76-9.29-2.8-1.97-6.4-4.87-8.86-7.58,1.36-.97,3.59.17,4.6.56,3.93,1.51,7.58,3.55,11.07,5.89,3.17,2.13,4.79,5.19,4.83,9,.05,4.96-.16,9.92-.9,14.83-.24,1.63-.71,3.26-2.81,3.37-.73.04-1.24.25-1.5.95-1.59,4.27-4.75,7.43-7.81,10.58-4.56,4.69-5.99,10.27-5.53,16.57.11,1.5.17,3.01.26,4.52.08,1.32.12,2.68-1.26,3.41-1.53.8-2.93.29-4.16-.76-2.87-2.45-5.86-4.77-8.54-7.41-1.74-1.71-2.98-1.6-4.57.02-2.22,2.28-4.55,4.44-6.84,6.65Z"/><path class="cls-8" d="m121.82,327.37c3.31,5.5,4.89,11.3,6.47,17.06,6.17,22.48,10.42,45.28,10.61,68.69,0,.54.02,1.08.05,1.61.09,1.37-.44,2.43-1.86,2.56-1.49.13-1.98-1.05-2.17-2.3-.66-4.25-1.27-8.51-1.95-12.76-3.84-24.22-7.7-48.43-11.55-72.65-.09-.59-.37-1.22.38-2.21Z"/><path class="cls-8" d="m249.23,548.73c.62,2.65-.36,4.41-1.18,6.12-9.03,18.87-19.15,37.07-32.77,53.1-1.02,1.2-1.87,3-3.84,1.63-1.78-1.24-.96-2.81-.16-4.28,9.62-17.71,21.21-34.15,32.7-50.65,1.39-2,3.24-3.67,5.25-5.91Z"/><path class="cls-8" d="m157.2,337.88c1.67,1.74,2.01,4.04,2.7,6.1,5.37,15.93,6.96,32.15,3.39,48.71-.07.32-.11.64-.21.94-.42,1.23-.8,2.67-2.52,2.35-1.47-.27-1.99-1.37-2.03-2.87-.35-10.89-.76-21.77-1.15-32.66-.23-6.47-.46-12.93-.67-19.4-.03-1.03-.49-2.13.49-3.18Z"/><path class="cls-8" d="m248.93,323.02c2.42,1.17,3.33,3.33,4.33,5.34,2.44,4.92,5.88,8.32,11.56,9.2,2.67.41,5.19,1.47,6.64,4.07.81,1.45,1.07,3.01-.47,3.99-1.47.93-2.06-.63-2.65-1.56-1.14-1.8-2.84-2.53-4.81-2.88-5.14-.91-8.84-3.38-10.51-8.67-1.03-3.27-2.7-6.33-4.09-9.49Z"/><path class="cls-8" d="m308.46,279.79c1.39,1.07,1.68,2.28.59,3.78-1.2,1.66-1.49,3.87-3.19,5.23.29-3.17,1.98-5.94,2.6-9.01Z"/><path class="cls-8" d="m305.9,288.71c.21.77-.09,1.34-.69,1.79.15-.63-.05-1.4.69-1.79Z"/><path class="cls-6" d="m331.98,549.21c1.92-7.7,3.87-15.04,5.56-22.43,7.91-34.6,15.8-69.21,25.92-103.26,3.92-13.19,8.19-26.27,12.07-39.47,2.09-7.11,6.62-11.1,13.76-12.38,20.99-3.76,41.97-7.52,63.09-10.47,22.42-3.13,44.9-5.63,67.46-7.49,18.7-1.53,37.44-2.46,56.2-3.19,2.58-.1,1.88,1.4,1.65,2.68-1.9,10.82-3.77,21.64-5.79,32.44-5.53,29.53-10.43,59.16-15.36,88.8-1.84,11.04-3.92,22.04-5.98,33.04-.55,2.96-1.64,5.78-2.91,8.53-3.56,7.77-10.66,8.99-18,9.8-21.1,2.32-42.21,4.64-63.31,6.97-16.28,1.79-32.59,3.42-48.85,5.43-26.2,3.24-52.53,5.43-78.61,9.65-2.12.34-4.22.83-6.9,1.36Zm145.43-81.75c1.4,0,2.81.11,4.2-.02,6.61-.61,13.02-1.83,18.08-6.67,6.05-5.78,4.72-12.65-3.1-15.62-1.21-.46-2.02-.78-2.1-2.27-.18-3.22-2.26-4.93-5.09-5.98-.8-.3-2,0-2.12-1.49-.44-5.6-4.22-9.51-7.17-13.83-.81-1.19-1.87-1.87-3.29-1.28-1.34.55-1.37,1.79-1.22,3.03.66,5.54-1.95,9.5-6.16,12.66-1.46,1.1-3.04,2.06-4.4,3.27-1.61,1.43-2.88,3.48-1.76,5.44,1.45,2.54.13,3.18-1.65,4.36-6.88,4.56-6.61,11.01.52,15.27,1.48.88,3.05,1.52,4.72,2,3.46.99,6.97,1.3,10.54,1.13Z"/><path class="cls-7" d="m90.63,525.05c-13.85,4.27-27.68,7.2-38.03,17.55,1.92-1.25,3.8-2.57,5.78-3.72,8.88-5.16,18.79-7.4,28.62-9.75,39.28-9.38,78.31-19.72,117.27-30.34.62-.17,1.3-.19,1.89-.43,1.83-.74,2.43-.41,2.18,1.74-1.23,10.83.75,21.26,4.43,31.41,1.3,3.58,3.13,6.94,6.08,9.4,2.06,1.72,1.24,2.19-.58,3.12-21.74,11.17-43.41,22.47-65.16,33.62-18.3,9.38-36.29,19.38-54.88,28.2-10.26,4.86-20.96,8.24-32.34,9.64-14.1,1.74-24.96-3.19-33.7-14.12-9.95-12.43-14.32-26.82-15.8-42.35-1.63-17.11-1.48-34.28-1.47-51.44,0-1.46-.32-3.14,2.27-2.41,14.62,4.12,29.76,6.08,44.33,10.45,9.55,2.87,19.09,5.76,29.12,9.43Zm-40.06,18.87c.94.24,1.22-.3,1.72-1.88-.91,1.07-1.28,1.5-1.65,1.92-.15.09-.29.18-.44.27.13.04.25.08.38.12,0-.15,0-.3-.01-.45Z"/><path class="cls-6" d="m229.17,328.95c-4.86-6.08-8-12.81-10.92-19.63-7.9-18.47-19.42-34.44-33.26-48.85-.3-.31-.55-.68-.89-.94-2.35-1.84-2.44-3.63-.67-6.19,2.31-3.35,4-7.12,6.01-10.68,1.43-2.54,3.14-4.88,5.11-7.05,1.72-1.88,2.89-2.13,4.49.37,12.27,19.11,30.04,32.08,49.13,43.52,4.35,2.61,8.62,5.36,11.88,9.34.61.75,2.01,1.48.47,2.88-9.91,9.04-18.2,19.53-26.43,30.05-1.73,2.2-3.35,4.47-4.93,7.17Z"/><path class="cls-7" d="m422.34,547.28c-2.81,11.81-6.14,23.3-7.41,35.22-.15,1.39-.39,2.78-.45,4.18-.39,9.03-6.5,14.47-12.59,19.83-5.69,5.02-11.79,9.42-19.53,10.81-4.02.72-6.69-1.14-7.15-5.12-2.19-18.87-3.19-37.79-2.28-56.79.11-2.26.71-2.98,3.08-3.22,14.78-1.51,29.55-3.25,44.31-4.91.62-.07,1.25,0,2.01,0Z"/><path class="cls-6" d="m258.36,528.45c8.88.8,16.31-3.05,23.76-6.92,4.97-2.58,9.86-1.43,14.6.74,3.71,1.7,7.32,3.62,11.02,5.34,2.35,1.09,4.85,1.81,7.44,2.05,6.14.56,9.86-3.78,8.41-9.78-.28-1.14-.72-2.25-1.18-3.66,4.03.18,7.22,2.74,10.97,3.35.72.12.42,1.35.33,2.07-1.06,8.56-2.19,17.1-3.17,25.67-.23,1.98-1.39,1.06-2.28,1.05-13.27-.26-25.55-4.53-37.74-9.21-9.13-3.5-18.24-7.08-27.85-9.09-1.42-.3-2.86-.47-4.29-.71,0-.3-.02-.6-.03-.9Z"/><path class="cls-6" d="m211.08,243.11c-3.65-3.69-7.09-7.17-10.62-10.74,3.9-1.63,8.22-1.32,12.42-1.73,1.39-.13.66.98.54,1.59-.75,3.57-1.53,7.13-2.34,10.88Z"/><path class="cls-6" d="m12.94,513.65c-3-.98-5.53-2.13-7.54-4.15-1.96-1.97-1.65-3.17.88-4.14.69-.26,1.37-.59,1.99-1,1.66-1.09,3.38-.63,4.89.07,1.38.64.48,2.12.44,3.18-.07,1.92-.4,3.83-.66,6.03Z"/><path class="cls-8" d="m274.22,485.46c4.39-2.88,8.78-3.82,13.09-4.81,7.66-1.78,15.47-2.76,23.26-3.83,11.2-1.54,19.09,4.39,26.3,11.77.61.62,1.61,1.45.77,2.47-.69.84-1.61.12-2.39-.13-2.59-.85-5.02-2.19-6.96-4.01-6.55-6.12-14.29-6.69-22.64-5.66-8.77,1.08-17.48,2.44-26.15,4.14-1.51.3-3.05.57-5.28.08Z"/><path class="cls-8" d="m285.41,497.94c9.14-1.84,18.26-3.77,27.43-5.49,4.4-.82,8.29.52,11.51,3.71,2.95,2.92,5.38,6.58,10.07,7.05.68.07,1.12.71,1.1,1.41-.02.74-.62,1.05-1.28,1.24-2.91.85-5.32-.3-7.44-2.07-1.73-1.44-3.27-3.13-4.88-4.71-2.8-2.74-6.05-3.86-10-3.32-7.03.97-14.09,1.77-21.15,2.6-1.79.21-3.61.25-5.41.36.02-.26.03-.53.05-.79Z"/><path class="cls-8" d="m477.41,467.45c-3.57.16-7.08-.14-10.54-1.13-1.67-.48-3.24-1.12-4.72-2-7.13-4.26-7.41-10.71-.52-15.27,1.78-1.18,3.09-1.82,1.65-4.36-1.12-1.96.16-4.01,1.76-5.44,1.36-1.21,2.94-2.17,4.4-3.27,4.21-3.17,6.82-7.12,6.16-12.66-.15-1.23-.11-2.47,1.22-3.03,1.42-.59,2.48.09,3.29,1.28,2.95,4.32,6.73,8.23,7.17,13.83.12,1.48,1.32,1.19,2.12,1.49,2.84,1.05,4.91,2.76,5.09,5.98.08,1.49.89,1.81,2.1,2.27,7.82,2.97,9.15,9.84,3.1,15.62-5.06,4.84-11.47,6.05-18.08,6.67-1.39.13-2.8.02-4.2.02Zm-4.63-19.64c-.96.79-2.11,1.31-3.06,1.04-3.62-1.04-5.21,1.6-7.08,3.69-2.75,3.08-2.33,5.72,1.17,8,1.36.89,2.83,1.5,4.42,1.87,6.42,1.5,12.84,1.24,19.23-.06,4.2-.86,7.98-2.62,10.66-6.14,1.35-1.77,2.08-3.84-.22-5.31-1.88-1.2-4.1-2.67-5.93.38-.73,1.22-1.94,2.03-3.3,2.49-1.14.39-2.4.64-3.18-.65-.83-1.38.12-2.18,1.13-2.9,1.71-1.21,3.14-2.68,3.68-4.75.4-1.53.21-3.02-1.16-4.1-1.16-.91-2.24-.82-3.53,0-2.04,1.29-3.01.17-3.2-1.87-.34-3.59-1.6-6.93-2.69-10.79-1.97,6.09-5.83,9.92-10.9,12.75-2.72,1.52-2.68,2.69-.02,4.31,1.25.76,2.61,1.35,3.97,2.04Z"/><path class="cls-7" d="m50.64,543.97c.37-.43.73-.86,1.65-1.92-.49,1.57-.78,2.12-1.72,1.88,0,0,.07.05.07.05Z"/><path class="cls-7" d="m50.57,543.92c0,.15,0,.3.01.45-.13-.04-.25-.08-.38-.12.15-.09.29-.18.44-.27,0,0-.07-.05-.07-.05Z"/><path class="cls-6" d="m472.78,447.81c-1.35-.69-2.71-1.28-3.97-2.04-2.66-1.62-2.7-2.79.02-4.31,5.07-2.84,8.93-6.67,10.9-12.75,1.09,3.86,2.35,7.2,2.69,10.79.19,2.03,1.16,3.16,3.2,1.87,1.28-.81,2.36-.9,3.53,0,1.38,1.08,1.57,2.57,1.16,4.1-.54,2.07-1.97,3.54-3.68,4.75-1.01.72-1.96,1.53-1.13,2.9.78,1.29,2.03,1.04,3.18.65,1.35-.46,2.57-1.27,3.3-2.49,1.83-3.05,4.05-1.59,5.93-.38,2.3,1.47,1.57,3.54.22,5.31-2.68,3.52-6.46,5.28-10.66,6.14-6.39,1.3-12.81,1.56-19.23.06-1.59-.37-3.06-.99-4.42-1.87-3.5-2.29-3.92-4.93-1.17-8,1.87-2.09,3.46-4.73,7.08-3.69.95.27,2.1-.25,3.06-1.04Z"/><path class="cls-3" d="m220.76,21.97c21.91-8.07,47.73-9.71,67.69,4.41,17.38,2.71,38.7,35.71,45.98,49.99-5.57-10.54-30.57-21.01-51.16-9.47,0,0-5.41-.18-11.93-.5-23.16-1.15-44.87,12.28-53.33,33.87-.6,1.54-1.11,3.05-1.51,4.54-2.88,8.7-17.72,24.83-15.26,33.61-2.94-10.55-17.78-5.77-21.93-6.18-4.07-.4-3.07-3.75-8.44-21.77,0,0-1.95-25.95-1.95-25.95l10.53-37.85,41.32-24.69Z"/><polygon class="cls-4" points="176.32 45.94 169.85 50.19 159.33 47.27 153.04 35.16 154.92 14.44 171.69 2.04 192.47 12.36 207.32 30.33 195.17 37.41 176.32 45.94"/><polygon class="cls-4" points="168.52 85.62 163.42 93.91 150.05 98.07 149.37 93.56 169.54 74.32 168.52 85.62"/><path class="cls-1" d="m223.57,211.44h0c.05.09.1.19.14.28l.37.72h0c.13.24.24.49.38.73h0c.92,1.56,1.89,3.1,2.99,4.53h0c.89,1.15,1.85,2.26,2.91,3.24h0c.73.67,1.54,1.26,2.36,1.83h0c.79.55,1.62,1.07,2.47,1.53h0c.81.43,1.65.81,2.51,1.15h0c.8.32,1.62.59,2.45.83h0c.88.26,1.79.45,2.68.65l2.61.56,2.72.67,2.8.84,2.82.99,2.77,1.05,2.98.98,2.7.77,2.71.62,2.81.59h0c.87.17,1.75.35,2.63.46h0c.85.11,1.7.17,2.55.21h0c.85.03,1.71,0,2.56,0l2.56-.07,2.4-.17,2.26-.26,2.27-.25,2.1-.36,1.98-.42,2.01-.54,1.96-.61h0c.61-.19,1.23-.36,1.83-.58h0c.58-.21,1.15-.46,1.71-.71h0c.52-.23,1.03-.47,1.53-.74h0c.5-.27.99-.58,1.47-.89h0c.46-.3.9-.65,1.36-.95h0c.46-.3.94-.59,1.43-.84h0c.45-.23.93-.41,1.4-.61l1.33-.53h0c.39-.16.79-.3,1.17-.48h0c.38-.18.76-.37,1.12-.58h0c.35-.2.69-.43,1.03-.65l1.06-.69,1.07-.79,1.06-.84.86-.71.71-.58.61-.49h0c.18-.14.37-.26.55-.4"/><path class="cls-2" d="m335.51,92.59c-7.26-30.7-34.97-62.64-67.35-69.43-21.81-2.4-63.06-3.01-70.86,21.59,14.8-49.96,99.96-30.43,122.72-2.22,32.68,40.52,24.18,96.32,15.49,143.52,0,0,0-.02,0-.03-.25.91-.83,2.41-.1.39-12.97,35.7-31.16,49.98-20.3,89.43-.76-2.76-5.48,2.31-6.83-.14-5.87-10.61-2.61-30.41-.87-42.07-31.81,19.63-79.29,2.59-90.44-33.22,16.81,30.65,68.54,37.54,94.11,15.44,27.09-32.95,26.76-82.57,24.43-123.26Z"/><path class="cls-2" d="m144.12,101.02s-.12-.07-.21-.12c-.01,0-.03,0-.04-.01.13.07.2.11.26.14Z"/><path class="cls-2" d="m144.12,101.02c.08.05.09.05,0,0h0Z"/><path class="cls-2" d="m169.69,58.79s0,0,0,0c0,0,0-.02,0-.03,0,.01,0,.02,0,.03Z"/><path class="cls-2" d="m207.27,177.68c-3.12,6.01-12.18,5.88-13.8-.77-1.28-9.67.95-21.43-8.72-27.65-11.54-17.07,12.55-24.93,17.28-6.47-.35-3.9-1.72-7.75-3.42-11.25-.45-.73-2.81-4.4-7.37-5.33-4.43-.9-9.16,1.15-11.97,5.2-13.33-31.97-10.69-78.38,21.55-97.14,3.6-2.1-16.18,7.13-21.56,9.71l-4.01.43c-6.09,1.78-13.18,2.95-16.15-.47-5.6-6.46,1.75-32.2,18.29-33.71,7.66-.7,20.32,7.8,29.72,20.66-5.5-33.15-52.83-45.31-57.86-7.75-6.92,18.31,10.25,47.6,26.68,24.17-2.4,3.65-4.37,7.52-6.25,11.46-3.64,25.18-30.69,24.12-27.62,40.35-.16.52,1.23,1.4,1.84,1.76,6.81,2.22,17.67-1.07,21.24-7.49,1.02,10.02,2.76,21.27,5.66,33.4,2.17,9.05,4.67,17.32,7.28,24.77,2.06,2.39,4.28,5.34,6.37,8.91,1.2,2.05,2.19,4.03,3.01,5.87-1.51,19.42,13.8,30.55,22.68,8.47-1.01.9-1.96,1.86-2.89,2.83Zm-53.67-83.73c5.5-2.79,9.94-7.96,11.89-13.64.42,8.97-.12,16.08-11.89,13.64Z"/><path class="cls-2" d="m195.57,149.3c-.48-1.55-1.05-3.19-1.73-4.88-.37-.91-.74-1.78-1.12-2.62,1.38,1.01,3.91,3.16,5.69,6.78,2.16,4.38,1.99,8.42,1.81,10.14-.19,1.52-.44,2.29-.76,2.32-.57.05-1.35-2.31-2.33-7.09-.52-1.55-1.03-3.1-1.55-4.64Z"/><path class="cls-2" d="m269.94,100.3c-5.42-2.38-10.84-4.09-16.86-4.55-5.53.16-11.29,1.14-15.9,4.4-1.84,1.23-3.83,2.25-5.47,3.74-.91.93-1.64,1.99-2.51,2.95-.36.39-.64.9-1.21.97.52.23.97-.11,1.44-.3.5-.21.96-.47,1.43-.76,1.75-.93,2.95-.96,4.81-1.36,4.3-.93,5.66-1.37,10.59-1.3,4.13.14,8.25.21,12.37.55,3.13.3,6.28.23,9.42.52,4.07.22,8.11-.54,12.15-1.01-3.61-1.57-7.07-2.63-10.25-3.86Z"/><path class="cls-2" d="m304.48,99.21c5.47-1.39,10.84-2.13,16.54-1.53,5.13,1.13,10.34,3.1,14.08,7.11,1.5,1.53,3.19,2.89,4.46,4.64.69,1.07,1.18,2.25,1.83,3.34.26.44.44,1,.96,1.17-.53.14-.89-.28-1.29-.55-.44-.29-.82-.63-1.2-1-1.47-1.23-2.59-1.46-4.25-2.18-3.85-1.67-5.04-2.34-9.66-3.13-3.88-.58-7.74-1.24-11.65-1.63-2.98-.25-5.91-.87-8.89-1.14-3.84-.5-7.48-1.95-11.17-3.12,3.65-.91,7.06-1.35,10.25-2.01Z"/><path class="cls-2" d="m305.46,138.08c-.74-7.9-4.5-14.94-9.6-20.88,1.5,4.17,2.8,9.88,3.64,12,1.76,6,1.85,15.52,1.21,22.57-2.8,6.76-10.39,9.69-17.08,7.49-.51,0-3.6-1.93-2.24-.57,15.73,17.82,28.63-4.04,24.07-20.6Z"/><path class="cls-2" d="m320.55,114.91c-1.45-1.21-3.43-.6-4.6.69-2.75,3.05-3.12,9.02-.15,12.04.97.91,2.24.77,3.34.24.29-.08.58-.18.84-.32,3.83-2.19,3.88-9.99.58-12.65Z"/><path class="cls-2" d="m262.12,115.32c-.12-3.09-1.16-5.96-3.73-6.53-4.66.09-6.01,6.94-4.85,11.88.12.62.3,1.23.57,1.79.46,1.11,1.09,2.02,1.86,2.59,1.79,1.18,3.8-.11,4.77-1.72,1.25-2.25,1.77-5.24,1.39-8.01Z"/><path class="cls-2" d="m310.39,185.65s-.14-.04-.17-.03c-11.99,11.41-30.52,4.46-43.16-2.73-.41,20.97,37.6,22.68,43.33,2.76Z"/><path class="cls-2" d="m310.39,185.65s-.14-.04-.17-.03c-11.99,11.41-30.52,4.46-43.16-2.73-.41,20.97,37.6,22.68,43.33,2.76Z"/><path class="cls-2" d="m249.46,53.66c-5.92-3.98-11.38-8.4-15.3-14.39-.8-1.34-1.46-2.78-2.02-4.23.07,1.72.32,3.42.64,5.11,1.83,7.41,6.02,14.55,12.33,18.98,6.58,4.27,14.8,6.12,22.58,5.14-6.39-2.9-12.5-6.56-18.23-10.61Z"/><path class="cls-2" d="m271.19,34.44c-.25-.1-.51-.2-.78-.28.88.93,1.65,1.96,2.42,2.98,5.89,7.42,7.43,16.56,9.76,25.46.6-10.3-.28-23.81-11.4-28.16Z"/><path class="cls-2" d="m293.18,38.8c-.36-.29-.74-.55-1.12-.79.4.67.78,1.34,1.13,2.04,2.81,5.34,2.78,11.93,1.31,17.67,3.48-5.41,4.08-14.52-1.32-18.91Z"/><path class="cls-2" d="m219.81,64.74c-3.75-1.01-7.6-1.83-11.16-3.3-3.77-1.76-7.33-4.08-10.33-6.98-.73-.8-1.18-1.8-1.65-2.77.11,1,.25,2.01.48,2.99,2.26,6.35,7.33,12.51,13.68,15.05,3.68,1.47,7.71,1.68,11.63,1.59,4.67-.2,9.39-.81,13.78-2.5-5.56-1.02-10.95-2.75-16.44-4.09Z"/><path class="cls-2" d="m184.23,81.99c-.29-1.69-.35-3.41-.49-5.11-.18.85-.37,1.71-.52,2.57-2.56,13.68,4.81,25.95,19.88,23.53-9.18-3.65-17.81-11-18.87-20.98Z"/><path class="cls-2" d="m216.68,198.34c-4.65-15.03-6.77-22.19-7.2-21.89-.2.14-.93-1.22-.61,1.29,1.7,13.39,9.68,57.92.78,70.65,7.56,14.18,14.91-32.77,7.03-50.05Z"/></g><g id="Calque_9"><path class="cls-2" d="m189.02,141.8s-7.75,6.06-13.55,1.86v-3.7s-.61-2.98-3.54-.33.25,7.78,2.08,8.87c1.68,1.01,2.73,1.87,6.59,1.59,0,0,7.81.24,10.01-3.05s-1.59-5.24-1.59-5.24Z"/><path class="cls-2" d="m193.08,152.61s-6.42,6.49-12.44,3.65l-.52-3.26s-.98-2.53-3.36.24,1.32,6.8,3.18,7.5c1.71.64,2.82,1.24,6.4.41,0,0,7.36-.95,8.95-4.17s-2.22-4.37-2.22-4.37Z"/></g></svg>