<svg xmlns="http://www.w3.org/2000/svg" xmlns:xlink="http://www.w3.org/1999/xlink" width="1080" zoomAndPan="magnify" viewBox="0 0 810 809.999993" height="1080" preserveAspectRatio="xMidYMid meet" version="1.0"><path fill="#00dc82" d="M 49.890625 162.132812 C 49.457031 163.214844 49.027344 280.644531 49.242188 423.378906 L 49.242188 682.898438 L 97.46875 683.546875 L 145.480469 683.980469 L 145.480469 478.527344 L 227.226562 478.527344 C 292.972656 478.527344 311.140625 479.175781 319.789062 481.773438 C 364.773438 495.179688 367.800781 553.140625 324.546875 577.144531 C 313.300781 583.199219 312.21875 583.417969 278.050781 584.066406 L 242.800781 584.929688 L 242.800781 688.304688 L 251.015625 688.304688 C 268.96875 688.304688 307.460938 683.546875 322.601562 679.4375 C 344.660156 673.597656 375.152344 658.460938 390.941406 645.699219 C 419.054688 622.992188 441.328125 588.824219 449.117188 556.167969 C 456.035156 527.621094 452.574219 493.449219 440.464844 468.148438 C 433.542969 454.089844 413 431.597656 398.507812 422.300781 C 392.453125 418.40625 387.695312 414.945312 387.695312 414.296875 C 387.695312 413.648438 390.507812 409.539062 393.96875 405.214844 C 425.976562 364.988281 430.949219 313.085938 407.375 265.507812 C 381.640625 213.386719 325.414062 174.460938 261.613281 164.296875 L 242.800781 161.265625 L 242.800781 259.453125 L 254.261719 260.964844 C 260.316406 261.613281 274.375 262.261719 285.1875 262.261719 C 309.191406 262.261719 321.953125 266.15625 333.414062 277.402344 C 347.472656 291.027344 351.796875 301.625 351.796875 321.734375 C 351.796875 336.007812 350.929688 340.984375 346.390625 349.851562 C 340.117188 361.960938 326.710938 373.421875 314.597656 376.882812 C 309.839844 378.179688 274.804688 379.046875 226.148438 379.046875 L 145.480469 379.046875 L 145.480469 160.617188 L 98.117188 160.617188 C 71.949219 160.617188 50.324219 161.265625 49.890625 162.132812 Z M 49.890625 162.132812 " fill-opacity="1" fill-rule="nonzero"/><path fill="#00dc82" d="M 379.910156 163.429688 C 403.050781 177.917969 418.621094 189.382812 428.785156 199.546875 C 442.410156 213.171875 459.929688 238.472656 464.253906 250.800781 L 467.066406 259.019531 L 538.214844 260.316406 C 603.746094 261.613281 610.234375 262.046875 621.261719 266.15625 C 660.40625 281.292969 672.300781 328.222656 643.96875 356.339844 C 628.617188 371.910156 624.289062 372.558594 542.109375 372.558594 L 470.308594 372.558594 L 467.5 380.558594 C 463.605469 392.671875 453.65625 412.132812 447.386719 419.488281 L 441.761719 426.191406 L 449.117188 433.976562 C 453.007812 438.300781 459.929688 448.25 464.46875 455.820312 L 472.6875 469.878906 L 541.460938 469.878906 C 581.902344 469.878906 614.558594 470.742188 621.046875 472.257812 C 637.050781 475.714844 649.375 484.582031 656.945312 498.207031 C 669.921875 521.5625 663.867188 552.058594 642.671875 570.007812 C 626.667969 583.847656 622.34375 584.496094 541.894531 584.496094 L 469.878906 584.496094 L 463.605469 597.039062 C 448.035156 627.964844 417.109375 661.703125 392.023438 675.328125 L 377.964844 682.898438 L 388.777344 683.546875 C 394.832031 683.980469 450.195312 683.980469 512.046875 683.332031 C 619.75 682.679688 625.15625 682.464844 641.808594 677.921875 C 672.300781 669.488281 693.496094 657.378906 714.472656 636.402344 C 730.257812 620.613281 734.367188 614.773438 743.882812 595.3125 C 750.15625 582.765625 756.644531 565.683594 758.375 557.03125 C 768.324219 512.046875 756.425781 468.148438 725.5 435.058594 L 710.578125 419.054688 L 723.339844 405.214844 C 749.289062 376.882812 762.484375 336.65625 757.726562 300.972656 C 754.914062 280.429688 745.398438 254.910156 733.9375 237.175781 C 709.714844 200.410156 666.027344 171.214844 623.425781 163.644531 C 601.148438 159.753906 373.640625 159.539062 379.910156 163.429688 Z M 379.910156 163.429688 " fill-opacity="1" fill-rule="nonzero"/></svg>